<svg version="1.1" preserveAspectRatio="none" xmlns="http://www.w3.org/2000/svg" width="500" height="500" viewBox="0 0 500 500"><rect width="100%" height="100%" fill="#F7F7F7" fill-opacity="1"/><svg viewBox="400.1926 322.6444 355.5972 178.2763" width="333" height="166.94734351114127" x="83.5px" y="166.5263px" xmlns="http://www.w3.org/2000/svg" xmlns:xlink="http://www.w3.org/1999/xlink" preserveAspectRatio="none"><defs></defs><style>.companyName {fill:#2B2B2B;fill-opacity:1;}.icon1 {fill:#2B2B2B;fill-opacity:1;}.icon2 {fill:#59C65B;fill-opacity:1;}.icon3 {fill:#6D6D6D;fill-opacity:1;}.icon3-str {stroke:#6D6D6D;stroke-opacity:1;}</style><g opacity="1" transform="rotate(0 524.6516 322.6444)">
<svg width="106.6792" height="76.6763" x="524.6516" y="322.6444" version="1.1" preserveAspectRatio="none" viewBox="20 42.500003814697266 160 115.00099182128906">
  <g transform="matrix(1 0 0 1 0 0)"><g><path d="M157.917 92.228c-12.196 0-22.083 9.867-22.083 22.039v8.718h-.05v20.307c0 6.816-5.536 12.341-12.366 12.341h-14.095c7.76-3.418 13.177-11.163 13.177-20.172V83.757c0-12.172-9.887-22.039-22.083-22.039H83.714a3.56 3.56 0 0 1-3.564-3.557c0-4.165-1.71-8.103-4.814-11.086-3.07-2.95-7.08-4.575-11.29-4.575L20 42.562V157.5h44.167V44.281c3.703.031 7.225 1.475 9.932 4.076 2.752 2.645 4.268 6.127 4.268 9.804v3.557h-.033V157.5h22.083c.726 0 1.443-.036 2.151-.104h20.85c5.37 0 10.05-3.005 12.441-7.418 1.023-1.888 3.64-2.168 5.007-.511 4.05 4.906 10.184 8.034 17.051 8.034 12.196 0 22.083-9.867 22.083-22.039v-21.194c0-12.173-9.887-22.04-22.083-22.04z" data-color="1" class="icon1"></path></g></g>
</svg>
</g><g opacity="1" transform="rotate(0 444.9757 479.3207)">
<svg width="266.0311" height="21.6" x="444.9757" y="479.3207" version="1.1" preserveAspectRatio="none" viewBox="2.9102 -30 471.8765 38.32040000000001">
  <g transform="matrix(1 0 0 1 0 0)" class="companyName"><path id="id-6izo4zJp24" d="M8.77-28.44L8.77 0L2.91 0L2.91-28.44L8.77-28.44Z M14.51-21.13L19.82-21.13L20.00-18.69Q22.26-21.52 26.07-21.52L26.07-21.52Q29.43-21.52 31.07-19.55Q32.71-17.58 32.75-13.65L32.75-13.65L32.75 0L27.11 0L27.11-13.52Q27.11-15.31 26.33-16.12Q25.55-16.93 23.73-16.93L23.73-16.93Q21.35-16.93 20.16-14.90L20.16-14.90L20.16 0L14.51 0L14.51-21.13Z M37.71-21.13L43.03-21.13L43.20-18.69Q45.47-21.52 49.28-21.52L49.28-21.52Q52.64-21.52 54.28-19.55Q55.92-17.58 55.96-13.65L55.96-13.65L55.96 0L50.31 0L50.31-13.52Q50.31-15.31 49.53-16.12Q48.75-16.93 46.93-16.93L46.93-16.93Q44.55-16.93 43.36-14.90L43.36-14.90L43.36 0L37.71 0L37.71-21.13Z M60.15-10.51L60.15-10.76Q60.15-13.91 61.36-16.37Q62.58-18.83 64.85-20.18Q67.13-21.52 70.13-21.52L70.13-21.52Q74.41-21.52 77.12-18.91Q79.82-16.29 80.13-11.80L80.13-11.80L80.17-10.35Q80.17-5.49 77.46-2.55Q74.74 0.39 70.17 0.39Q65.60 0.39 62.88-2.54Q60.15-5.47 60.15-10.51L60.15-10.51ZM65.80-10.35L65.80-10.35Q65.80-7.34 66.93-5.75Q68.06-4.16 70.17-4.16L70.17-4.16Q72.22-4.16 73.38-5.73Q74.53-7.30 74.53-10.76L74.53-10.76Q74.53-13.71 73.38-15.33Q72.22-16.95 70.13-16.95L70.13-16.95Q68.06-16.95 66.93-15.34Q65.80-13.73 65.80-10.35Z M88.14-21.13L92.07-6.89L95.99-21.13L101.89-21.13L94.76 0L89.37 0L82.24-21.13L88.14-21.13Z M122.83 0L117.12 0Q116.73-0.76 116.56-1.89L116.56-1.89Q114.51 0.39 111.23 0.39L111.23 0.39Q108.12 0.39 106.08-1.41Q104.04-3.20 104.04-5.94L104.04-5.94Q104.04-9.30 106.53-11.09Q109.02-12.89 113.73-12.91L113.73-12.91L116.32-12.91L116.32-14.12Q116.32-15.59 115.57-16.46Q114.82-17.34 113.20-17.34L113.20-17.34Q111.77-17.34 110.96-16.66Q110.15-15.98 110.15-14.79L110.15-14.79L104.51-14.79Q104.51-16.62 105.64-18.18Q106.77-19.75 108.84-20.63Q110.91-21.52 113.49-21.52L113.49-21.52Q117.40-21.52 119.69-19.56Q121.99-17.60 121.99-14.04L121.99-14.04L121.99-4.88Q122.01-1.88 122.83-0.33L122.83-0.33L122.83 0ZM112.46-3.93L112.46-3.93Q113.71-3.93 114.76-4.48Q115.82-5.04 116.32-5.98L116.32-5.98L116.32-9.61L114.21-9.61Q109.98-9.61 109.70-6.68L109.70-6.68L109.68-6.35Q109.68-5.29 110.43-4.61Q111.17-3.93 112.46-3.93Z M128.24-26.33L133.88-26.33L133.88-21.13L137.50-21.13L137.50-16.99L133.88-16.99L133.88-6.45Q133.88-5.27 134.33-4.77Q134.78-4.26 136.05-4.26L136.05-4.26Q136.99-4.26 137.71-4.39L137.71-4.39L137.71-0.12Q136.05 0.39 134.29 0.39L134.29 0.39Q128.35 0.39 128.24-5.61L128.24-5.61L128.24-16.99L125.15-16.99L125.15-21.13L128.24-21.13L128.24-26.33Z M147.40-21.13L147.40 0L141.73 0L141.73-21.13L147.40-21.13ZM141.40-26.60L141.40-26.60Q141.40-27.87 142.25-28.69Q143.10-29.51 144.56-29.51L144.56-29.51Q146.01-29.51 146.87-28.69Q147.73-27.87 147.73-26.60L147.73-26.60Q147.73-25.31 146.86-24.49Q145.99-23.67 144.56-23.67Q143.14-23.67 142.27-24.49Q141.40-25.31 141.40-26.60Z M152.73-21.13L158.04-21.13L158.22-18.69Q160.48-21.52 164.29-21.52L164.29-21.52Q167.65-21.52 169.29-19.55Q170.93-17.58 170.97-13.65L170.97-13.65L170.97 0L165.33 0L165.33-13.52Q165.33-15.31 164.54-16.12Q163.76-16.93 161.95-16.93L161.95-16.93Q159.56-16.93 158.37-14.90L158.37-14.90L158.37 0L152.73 0L152.73-21.13Z M175.23-10.49L175.23-10.72Q175.23-15.59 177.54-18.55Q179.86-21.52 183.78-21.52L183.78-21.52Q187.26-21.52 189.19-19.14L189.19-19.14L189.43-21.13L194.54-21.13L194.54-0.70Q194.54 2.07 193.28 4.12Q192.02 6.17 189.74 7.25Q187.45 8.32 184.39 8.32L184.39 8.32Q182.06 8.32 179.86 7.39Q177.65 6.46 176.52 5L176.52 5L179.02 1.56Q181.13 3.93 184.13 3.93L184.13 3.93Q186.38 3.93 187.63 2.72Q188.88 1.52 188.88-0.68L188.88-0.68L188.88-1.82Q186.93 0.39 183.74 0.39L183.74 0.39Q179.93 0.39 177.58-2.59Q175.23-5.57 175.23-10.49L175.23-10.49ZM180.87-10.31L180.87-10.31Q180.87-7.44 182.02-5.81Q183.18-4.18 185.19-4.18L185.19-4.18Q187.77-4.18 188.88-6.11L188.88-6.11L188.88-15Q187.75-16.93 185.23-16.93L185.23-16.93Q183.20-16.93 182.03-15.27Q180.87-13.61 180.87-10.31Z M228.29-28.44L232.96-8.20L236.79-28.44L242.63-28.44L236.32 0L230.42 0L225.79-19.02L221.16 0L215.26 0L208.96-28.44L214.80-28.44L218.64-8.24L223.33-28.44L228.29-28.44Z M255.34 0.39L255.34 0.39Q250.69 0.39 247.77-2.46Q244.85-5.31 244.85-10.06L244.85-10.06L244.85-10.61Q244.85-13.79 246.08-16.30Q247.31-18.81 249.57-20.17Q251.83-21.52 254.72-21.52L254.72-21.52Q259.05-21.52 261.54-18.79Q264.03-16.05 264.03-11.04L264.03-11.04L264.03-8.73L250.58-8.73Q250.85-6.66 252.23-5.41Q253.60-4.16 255.71-4.16L255.71-4.16Q258.98-4.16 260.81-6.52L260.81-6.52L263.58-3.42Q262.31-1.62 260.15-0.62Q257.98 0.39 255.34 0.39ZM254.70-16.95L254.70-16.95Q253.02-16.95 251.97-15.82Q250.93-14.69 250.64-12.58L250.64-12.58L258.49-12.58L258.49-13.03Q258.45-14.90 257.47-15.93Q256.49-16.95 254.70-16.95Z M287.08-10.68L287.08-10.37Q287.08-5.29 284.91-2.45Q282.74 0.39 278.86 0.39L278.86 0.39Q275.42 0.39 273.37-2.25L273.37-2.25L273.11 0L268.04 0L268.04-30L273.68-30L273.68-19.24Q275.63-21.52 278.82-21.52L278.82-21.52Q282.69-21.52 284.88-18.68Q287.08-15.84 287.08-10.68L287.08-10.68ZM281.44-10.78L281.44-10.78Q281.44-13.98 280.42-15.46Q279.40-16.93 277.39-16.93L277.39-16.93Q274.70-16.93 273.68-14.73L273.68-14.73L273.68-6.39Q274.72-4.16 277.43-4.16L277.43-4.16Q280.17-4.16 281.03-6.86L281.03-6.86Q281.44-8.14 281.44-10.78Z M317.23-7.46L317.23-7.46Q317.23-9.12 316.06-10.01Q314.89-10.90 311.84-11.88Q308.80-12.87 307.02-13.83L307.02-13.83Q302.18-16.45 302.18-20.88L302.18-20.88Q302.18-23.18 303.47-24.99Q304.77-26.80 307.21-27.81Q309.64-28.83 312.66-28.83L312.66-28.83Q315.71-28.83 318.09-27.72Q320.48-26.62 321.79-24.61Q323.11-22.60 323.11-20.04L323.11-20.04L317.25-20.04Q317.25-21.99 316.02-23.08Q314.79-24.16 312.57-24.16L312.57-24.16Q310.42-24.16 309.23-23.25Q308.04-22.34 308.04-20.86L308.04-20.86Q308.04-19.47 309.43-18.54Q310.83-17.60 313.54-16.78L313.54-16.78Q318.54-15.27 320.83-13.05Q323.11-10.82 323.11-7.50L323.11-7.50Q323.11-3.81 320.32-1.71Q317.53 0.39 312.80 0.39L312.80 0.39Q309.52 0.39 306.82-0.81Q304.13-2.01 302.71-4.10Q301.30-6.19 301.30-8.95L301.30-8.95L307.18-8.95Q307.18-4.24 312.80-4.24L312.80-4.24Q314.89-4.24 316.06-5.09Q317.23-5.94 317.23-7.46Z M326.63-10.51L326.63-10.76Q326.63-13.91 327.84-16.37Q329.05-18.83 331.33-20.18Q333.60-21.52 336.61-21.52L336.61-21.52Q340.89-21.52 343.59-18.91Q346.30-16.29 346.61-11.80L346.61-11.80L346.65-10.35Q346.65-5.49 343.93-2.55Q341.22 0.39 336.65 0.39Q332.08 0.39 329.35-2.54Q326.63-5.47 326.63-10.51L326.63-10.51ZM332.27-10.35L332.27-10.35Q332.27-7.34 333.41-5.75Q334.54-4.16 336.65-4.16L336.65-4.16Q338.70-4.16 339.85-5.73Q341.00-7.30 341.00-10.76L341.00-10.76Q341.00-13.71 339.85-15.33Q338.70-16.95 336.61-16.95L336.61-16.95Q334.54-16.95 333.41-15.34Q332.27-13.73 332.27-10.35Z M356.88-30L356.88 0L351.22 0L351.22-30L356.88-30Z M375.14 0L374.99-2.15Q372.90 0.39 369.20 0.39L369.20 0.39Q365.81 0.39 364.02-1.56Q362.23-3.52 362.19-7.29L362.19-7.29L362.19-21.13L367.84-21.13L367.84-7.48Q367.84-4.18 370.85-4.18L370.85-4.18Q373.72-4.18 374.79-6.17L374.79-6.17L374.79-21.13L380.45-21.13L380.45 0L375.14 0Z M386.63-26.33L392.27-26.33L392.27-21.13L395.88-21.13L395.88-16.99L392.27-16.99L392.27-6.45Q392.27-5.27 392.72-4.77Q393.17-4.26 394.44-4.26L394.44-4.26Q395.38-4.26 396.10-4.39L396.10-4.39L396.10-0.12Q394.44 0.39 392.68 0.39L392.68 0.39Q386.74 0.39 386.63-5.61L386.63-5.61L386.63-16.99L383.54-16.99L383.54-21.13L386.63-21.13L386.63-26.33Z M405.79-21.13L405.79 0L400.12 0L400.12-21.13L405.79-21.13ZM399.79-26.60L399.79-26.60Q399.79-27.87 400.64-28.69Q401.49-29.51 402.95-29.51L402.95-29.51Q404.40-29.51 405.26-28.69Q406.12-27.87 406.12-26.60L406.12-26.60Q406.12-25.31 405.25-24.49Q404.38-23.67 402.95-23.67Q401.53-23.67 400.66-24.49Q399.79-25.31 399.79-26.60Z M410.35-10.51L410.35-10.76Q410.35-13.91 411.57-16.37Q412.78-18.83 415.05-20.18Q417.33-21.52 420.34-21.52L420.34-21.52Q424.61-21.52 427.32-18.91Q430.02-16.29 430.34-11.80L430.34-11.80L430.37-10.35Q430.37-5.49 427.66-2.55Q424.94 0.39 420.37 0.39Q415.80 0.39 413.08-2.54Q410.35-5.47 410.35-10.51L410.35-10.51ZM416.00-10.35L416.00-10.35Q416.00-7.34 417.13-5.75Q418.26-4.16 420.37-4.16L420.37-4.16Q422.43-4.16 423.58-5.73Q424.73-7.30 424.73-10.76L424.73-10.76Q424.73-13.71 423.58-15.33Q422.43-16.95 420.34-16.95L420.34-16.95Q418.26-16.95 417.13-15.34Q416.00-13.73 416.00-10.35Z M434.53-21.13L439.85-21.13L440.02-18.69Q442.29-21.52 446.10-21.52L446.10-21.52Q449.46-21.52 451.10-19.55Q452.74-17.58 452.78-13.65L452.78-13.65L452.78 0L447.13 0L447.13-13.52Q447.13-15.31 446.35-16.12Q445.57-16.93 443.75-16.93L443.75-16.93Q441.37-16.93 440.18-14.90L440.18-14.90L440.18 0L434.53 0L434.53-21.13Z M469.30-5.84L469.30-5.84Q469.30-6.88 468.27-7.47Q467.25-8.07 464.98-8.54L464.98-8.54Q457.44-10.12 457.44-14.94L457.44-14.94Q457.44-17.75 459.78-19.64Q462.11-21.52 465.88-21.52L465.88-21.52Q469.90-21.52 472.32-19.63Q474.73-17.73 474.73-14.71L474.73-14.71L469.08-14.71Q469.08-15.92 468.30-16.71Q467.52-17.50 465.86-17.50L465.86-17.50Q464.44-17.50 463.65-16.86Q462.87-16.21 462.87-15.21L462.87-15.21Q462.87-14.28 463.76-13.70Q464.65-13.13 466.76-12.71Q468.87-12.29 470.31-11.76L470.31-11.76Q474.79-10.12 474.79-6.07L474.79-6.07Q474.79-3.18 472.31-1.40Q469.83 0.39 465.90 0.39L465.90 0.39Q463.24 0.39 461.18-0.56Q459.12-1.50 457.95-3.15Q456.78-4.80 456.78-6.72L456.78-6.72L462.13-6.72Q462.21-5.21 463.24-4.41Q464.28-3.61 466.02-3.61L466.02-3.61Q467.64-3.61 468.47-4.23Q469.30-4.84 469.30-5.84Z"/></g>
</svg>
</g><g opacity="1" transform="rotate(0 400.1926 425.3207)">
<svg width="355.5972" height="40" x="400.1926" y="425.3207" version="1.1" preserveAspectRatio="none" viewBox="0.2 -25.44 226.16000000000003 25.44">
  <g transform="matrix(1 0 0 1 0 0)" class="companyName"><path id="id-D6z1nYkh12" d="M19.16 0L13.40 0L12.52-4.60L6.72-4.60L5.84 0L0.20 0L5.96-25.44L13.24-25.44L19.16 0ZM9.60-19.52L7.52-8.76L11.68-8.76L9.60-19.52Z M31.92-15.76L31.92-15.76L31.92-20.52Q31.92-21.52 30.84-21.52L30.84-21.52L27.56-21.52L27.56-14.76L30.84-14.76Q31.92-14.76 31.92-15.76ZM31.92-4.92L31.92-4.92L31.92-9.88Q31.92-10.40 31.68-10.62Q31.44-10.84 30.84-10.84L30.84-10.84L27.56-10.84L27.56-3.92L30.84-3.92Q31.92-3.92 31.92-4.92ZM21.92 0L21.92-25.44L32.48-25.44Q37.56-25.44 37.56-21.04L37.56-21.04L37.56-16.56Q37.56-13.60 35.76-12.84L35.76-12.84Q37.56-12.16 37.56-9.40L37.56-9.40L37.56-4.44Q37.56 0 32.48 0L32.48 0L21.92 0Z M59.12 0L53.36 0L52.48-4.60L46.68-4.60L45.80 0L40.16 0L45.92-25.44L53.20-25.44L59.12 0ZM49.56-19.52L47.48-8.76L51.64-8.76L49.56-19.52Z M70.72-5.20L70.72-5.20L70.72-9.80Q70.72-10.32 70.48-10.54Q70.24-10.76 69.64-10.76L69.64-10.76L66.12-10.76Q61.40-10.76 61.40-15.24L61.40-15.24L61.40-21.04Q61.40-25.44 66.44-25.44L66.44-25.44L71.32-25.44Q76.36-25.44 76.36-21.04L76.36-21.04L76.36-17.72L70.64-17.72L70.64-20.24Q70.64-21.24 69.56-21.24L69.56-21.24L68.20-21.24Q67.12-21.24 67.12-20.24L67.12-20.24L67.12-15.76Q67.12-15.24 67.36-15.02Q67.60-14.80 68.20-14.80L68.20-14.80L71.64-14.80Q74.20-14.80 75.32-13.70Q76.44-12.60 76.44-10.44L76.44-10.44L76.44-4.44Q76.44 0 71.40 0L71.40 0L66.56 0Q61.48 0 61.48-4.44L61.48-4.44L61.48-7.72L67.20-7.72L67.20-5.20Q67.20-4.20 68.28-4.20L68.28-4.20L69.64-4.20Q70.72-4.20 70.72-5.20Z M97.72 0L91.96 0L91.08-4.60L85.28-4.60L84.40 0L78.76 0L84.52-25.44L91.80-25.44L97.72 0ZM88.16-19.52L86.08-8.76L90.24-8.76L88.16-19.52Z M110.88-8.20L110.88 0L105.16 0L105.16-8.24L98.76-25.44L104.60-25.44L108-13.48L111.16-25.44L117-25.44L110.88-8.20Z M129.88-10L119.08-10L119.08-13.92L129.88-13.92L129.88-10Z M132.12-25.44L147.16-25.44L147.16-21.24L142.48-21.24L142.48 0L136.76 0L136.76-21.24L132.12-21.24L132.12-25.44Z M154.88-25.44L154.88-25.44L160.24-25.44Q165.28-25.44 165.28-21.04L165.28-21.04L165.28-4.44Q165.28 0 160.24 0L160.24 0L154.88 0Q149.80 0 149.80-4.44L149.80-4.44L149.80-21.04Q149.80-25.44 154.88-25.44ZM159.56-5.20L159.56-5.20L159.56-20.24Q159.56-21.24 158.52-21.24L158.52-21.24L156.60-21.24Q155.52-21.24 155.52-20.24L155.52-20.24L155.52-5.20Q155.52-4.20 156.60-4.20L156.60-4.20L158.52-4.20Q159.56-4.20 159.56-5.20Z M169.80 0L169.80-25.44L180.40-25.44Q185.48-25.44 185.48-21.04L185.48-21.04L185.48-4.44Q185.48 0 180.40 0L180.40 0L169.80 0ZM179.76-4.92L179.76-4.92L179.76-20.52Q179.76-21.52 178.68-21.52L178.68-21.52L175.52-21.52L175.52-3.92L178.68-3.92Q179.76-3.92 179.76-4.92Z M207.08 0L201.32 0L200.44-4.60L194.64-4.60L193.76 0L188.12 0L193.88-25.44L201.16-25.44L207.08 0ZM197.52-19.52L195.44-8.76L199.60-8.76L197.52-19.52Z M220.24-8.20L220.24 0L214.52 0L214.52-8.24L208.12-25.44L213.96-25.44L217.36-13.48L220.52-25.44L226.36-25.44L220.24-8.20Z"/></g>
</svg>
</g></svg></svg>