<svg version="1.1" preserveAspectRatio="none" xmlns="http://www.w3.org/2000/svg" width="500" height="500" viewBox="0 0 500 500"><rect width="100%" height="100%" fill="#F5F5F5" fill-opacity="1"/><svg viewBox="182.35 146.5273 457.3817 122.4" width="333" height="89.11419062021939" x="83.5px" y="205.4429px" xmlns="http://www.w3.org/2000/svg" xmlns:xlink="http://www.w3.org/1999/xlink" preserveAspectRatio="none"><defs></defs><style>.companyName {fill:#08376B;fill-opacity:1;}.icon1 {fill:#35C0ED;fill-opacity:1;}.icon2 {fill:#9AEBA6;fill-opacity:1;}.icon3 {fill:#2F90B0;fill-opacity:1;}.icon3-str {stroke:#2F90B0;stroke-opacity:1;}.shapeStroke-str {stroke:#08376B;stroke-opacity:1;}.text {fill:#08376B;fill-opacity:1;}</style><g opacity="1" transform="rotate(0 182.35 161.5273)">
<svg width="30.6039" height="92.4" x="182.35" y="161.5273" version="1.1" preserveAspectRatio="none" viewBox="73.50494384765625 20.000003814697266 52.995391845703125 160.00473022460938">
  <g transform="matrix(1 0 0 1 0 0)"><g><path d="M102.621 174.634c.696-.415 1.401-.793 2.326-.555l-2.326.555z"></path><path d="M105.18 77.501c1.012-.109 1.949-.207 2.886-.311a1.24 1.24 0 0 1 .967.292c.711.576 1.44 1.129 2.11 1.65v4.956c-.385.314-.754.212-1.073.002-.372-.245-.703-.552-1.049-.835-.826-.675-1.669-1.332-2.47-2.035-.552-.484-1.127-.925-1.194-1.807-.046-.592-.335-1.17-.177-1.912z" data-color="1" class="icon1"></path><path d="M116.256 89.319c-.598.143-.863-.017-1.152-.394-.622-.809-1.341-1.543-2.139-2.441-.035-.953-.067-2.07-.121-3.185-.026-.543-.101-1.083-.136-1.625-.019-.292-.003-.586-.003-.957l.772-.059c.37.403.677.727.973 1.06.71.8 1.427 1.594 2.115 2.413.227.27.308.617.192.982a2.085 2.085 0 0 0-.108.502c-.058.967-.091 1.937-.165 2.902-.023.281-.155.554-.228.802z" data-color="1" class="icon1"></path><path d="m81.463 39.43-.051-.647.817-1.041c.137 0 .266-.02.385.003.629.126 1.251.289 1.884.389.976.155 1.82.644 2.681 1.054a64.76 64.76 0 0 1 4.319 2.288c1.345.77 2.644 1.619 3.961 2.438.082.051.137.143.273.291l-.421 2.577c-.312.214-.652.195-.991.064-1.056-.411-2.081-.895-3.197-1.163-.32-.077-.587-.457-.83-.739-.711-.826-1.398-1.674-2.095-2.512-.334-.401-.656-.812-1.011-1.194-.175-.188-.387-.394-.622-.467-.777-.24-1.572-.423-2.359-.628-.88-.227-1.763-.457-2.743-.713z" data-color="2" class="icon2"></path><path d="M89.181 130.666c-.09.103-.22.192-.262.311-.272.763-.56 1.523-.769 2.304-.133.496-.151 1.025-.2 1.541-.109 1.158-.187 2.32-.313 3.476-.126 1.152-.32 2.296-.438 3.448-.091.889-.108 1.786-.163 2.679-.24 3.927-.129 7.859-.151 11.789-.002.434.007.867-.001 1.301-.049 2.575-.1 5.149-.154 7.724-.002.119-.041.238-.06.342-1.41.358-3.581.232-4.643-1.345 0-1.892-.008-3.823.007-5.754.003-.392.118-.782.14-1.174.051-.921-.079-1.825-.279-2.726-.106-.48-.126-.98-.168-1.473-.06-.717-.087-1.437-.162-2.152-.074-.71-.2-1.415-.287-2.123-.066-.54-.156-1.084-.151-1.625.009-.974-.163-1.92-.301-2.876-.117-.809-.1-1.635-.17-2.452-.172-2.019.335-3.914.973-5.805a608.747 608.747 0 0 0 3.661-11.189c.249-.788.357-1.65.364-2.479.035-4.241.023-8.482.01-12.722-.002-.642-.101-1.284-.141-1.927-.012-.195.02-.393.036-.656.817-.225 1.655.005 2.452-.248-.88 0-1.76.02-2.639-.006-.914-.027-1.769-.237-2.45-1.01v-4.307l-.145-.003v3.151l-.791.076c-.104-.091-.174-.163-.254-.222-1.181-.87-1.262-2.047-.956-3.338.034-.143.027-.297.035-.446.052-.918.07-1.84.162-2.754.116-1.152.308-2.297.438-3.448.081-.714.089-1.437.166-2.151.063-.586.186-1.166.268-1.75.069-.489.125-.98.174-1.471.108-1.083.197-2.168.315-3.25.077-.71.208-1.414.284-2.123.05-.469.028-.921-.22-1.371-1.227-2.224-2.186-4.575-3.172-6.908-.715-1.693-1.285-3.446-1.932-5.168-.612-1.631-1.266-3.246-1.85-4.886-.494-1.386-.918-2.796-1.362-4.198a2.336 2.336 0 0 1-.099-.655c-.012-.778.008-1.556-.007-2.334a768.107 768.107 0 0 0-.157-7.121c-.012-.442.071-.836.307-1.201.885-1.363 1.764-2.729 2.662-4.083.545-.821 1.152-1.603 1.668-2.441.232-.377.469-.624.909-.594.308-1.194.389-2.401.781-3.584 2.306-.012 4.41.647 6.545 1.287l2.922 3.514v.746c.971.404 1.944.812 2.919 1.213 1.05.432 2.104.856 3.156 1.284.435.177.855.413 1.307.517.915.213 1.444.754 1.784 1.61.488 1.228 1.069 2.42 1.609 3.627 1.004 2.244 2.009 4.488 3.01 6.734.039.088.048.189.084.335.505-1.045.611-2.222 1.325-3.063 1.017-.205 1.797.227 2.558.633.915.488 1.784 1.059 2.682 1.581.378.22.633.481.788.923.381 1.087.864 2.138 1.274 3.215.182.479.331.979.417 1.482.075.437.03.874-.193 1.302-.467.895-.885 1.815-1.315 2.729-.196.417-.533.489-.994.405-.891-.911-2.012-1.577-3.28-2.317.122.38.164.642.283.863.385.714.679 1.469 1.188 2.13.412.536.655 1.204.938 1.829.075.167.066.401.022.586-.368 1.548-.754 3.092-1.153 4.716l-2.945.465c.173.79.351 1.498.478 2.215.171.969.309 1.943.446 2.917.072.514.123 1.032.165 1.55.061.742.077 1.488.162 2.227.124 1.076.297 2.147.436 3.222.032.247.01.501.011.752.007 1.241.213 2.457.429 3.675.095.535.105 1.083.182 1.622.16 1.121.34 2.238.511 3.357.082.535.155 1.072.246 1.606.177 1.041.408 2.076.527 3.123.062.545.408 1.083.107 1.738l-1.456.067v.094h1.066c.438.225.522.5.52.86-.006 1.094-.121 2.173-.292 3.253-.104.659-.122 1.333-.169 2.001-.057.792-.074 1.589-.163 2.378-.121 1.077-.299 2.147-.441 3.222-.161 1.222-.269 2.453-.472 3.668-.307 1.84-.684 3.669-1.015 5.506-.183 1.017-.322 2.041-.498 3.06-.079.459-.214.908-.296 1.367-.262 1.476-.503 2.956-.769 4.431-.174.966-.383 1.926-.566 2.891-.064.339-.087.685-.142 1.026-.164 1.02-.325 2.04-.504 3.056-.175.991-.379 1.977-.556 2.968-.177.993-.336 1.988-.503 2.983l-.563 3.345c-.118.704-.227 1.409-.349 2.111-.235 1.356-.488 2.708-.712 4.066-.137.826-.221 1.661-.355 2.488-.101.624-.243 1.242-.378 1.923h1.965c.746.374.488.932.555 1.478-.335.374-.7.778-1.061 1.187-.329.373-.682.731-.969 1.134-.148.208-.255.503-.244.752.027.603-.201 1.238.256 1.806.122.152.018.482.018.82-1.163.582-2.344 1.143-3.496 1.758-1.659.887-3.389 1.61-5.13 2.315-.646.261-1.254.351-1.926-.032-.745-.425-1.563-.722-2.346-1.084-.214-.099-.414-.228-.554-.306-.03-.132-.04-.156-.041-.181-.054-2.75-.25-5.507-.122-8.249.149-3.205-.057-6.412.143-9.606.208-3.331.02-6.658.133-9.983.035-1.011.187-2.018.284-3.026.007-.075.003-.151.01-.225.1-1.109.208-2.217.299-3.327.064-.792.071-1.589.164-2.377.147-1.244.353-2.479.81-3.66.114-.294.163-.612.243-.919.229-.504.437-1.019.693-1.509.297-.567.404-1.155.377-1.789-.065-1.518-.097-3.037-.159-4.555-.05-1.218.038-2.431-.118-3.657-.179-1.402-.134-2.832-.181-4.251-.012-.35.019-.703-.007-1.052-.039-.537-.11-1.072-.168-1.608-.131.184-.138.357-.13.529.048.967.103 1.934.15 2.901.064 1.317.003 2.632.118 3.957.172 1.983-.048 3.988.172 5.982.087.792.032 1.603.006 2.404-.01.312-.107.623-.184.93-.143.588-.596 1.083-.543 1.736zm4.558-23.986.027-.075h-3.255l.001.075h3.227zm3.946-.15.03-.075h-3.109l.001.075h3.078zm7.328-.465v-.071h-2.071l.001.071h2.07zm-2.609.15-.006-.075h-1.911v.075h1.917zm3.006-.387-.065.075h1.622v-.075h-1.557zm-15.603.988-.003-.075H88.64v.075h1.167z" data-color="3" class="icon3"></path><path d="M82.52 38.022v-1.257c.304-.024.592-.074.876-.061.37.018.737.091 1.107.131.545.059 1.092.099 1.636.166.688.086 1.375.188 2.061.288.389.057.777.123 1.198.19l3.197-3.504.784.046.065-.584c1.513-1.587 2.582-2.317 3.506-2.295.011.018.098.119.139.237.307.868.862 1.697.454 2.685a.4.4 0 0 0-.026.145c-.003.652.022 1.305-.013 1.955-.034.64-.127 1.276-.195 1.914l.14.081c.167-.16.34-.314.499-.481.946-.998 2.066-1.781 3.193-2.556.343-.236.709-.358 1.146-.129.109.358.108.688-.049 1.064a14.236 14.236 0 0 0-.616 1.883c-.138.525-.432.817-1.022.875l-1.242 3.811.126.101c-.273.152-.577.267-.811.464a9.26 9.26 0 0 0-1.002 1.008c-.422.485-.814.997-1.203 1.477h-.869l-.095-1.141c-.217-.166-.479-.389-.761-.581-1.511-1.029-3.048-2.008-4.676-2.858-1.47-.768-2.938-1.532-4.487-2.123-.961-.364-1.969-.615-3.06-.951z" data-color="4" class="icon1"></path><path d="M110.46 51.332h.875c.205.609.427 1.179.584 1.766.112.42-.03.839-.222 1.218-.479.944-.982 1.876-1.467 2.817-.155.3-.274.619-.427.92-.132.259-.29.505-.409.709-.582.13-.983-.01-1.412-.297-.902-.605-1.886-1.065-2.962-1.303-.094-.021-.182-.066-.241-.088-.05-.078-.097-.118-.1-.161-.087-1.665-.169-3.331-.245-4.837.235-.585.56-.696 1.019-.608.534.416 1.111.844 1.66 1.304.226.19.447.235.689.118a73.447 73.447 0 0 0 2.315-1.158c.139-.073.22-.252.343-.4z" data-color="4" class="icon1"></path><path d="M111.762 73.804c-.298-1.22-.857-2.305-.915-3.598l.881-.123c.578.779 1.141 1.583 1.752 2.348.618.775 1.283 1.512 1.912 2.248.159 1.278-.088 2.49-.352 3.773-.381.066-.786.146-1.195.203-.541.074-1.083.167-1.628.186-1.38.047-1.482-.291-2.007-1.029h-1.339l-.549-.516v-.608c.722-.694 1.486-1.235 2.107-1.953.341-.396.877-.623 1.333-.931z" data-color="4" class="icon1"></path><path d="M115.04 113.555c-1.086-1.213-2.088-2.325-3.082-3.444a245.659 245.659 0 0 1-2.015-2.302c-.325-.376-.636-.764-1.012-1.216-.035-.201-.075-.465.129-.755.123-.176.145-.473.109-.699-.172-1.091-.382-2.175-.573-3.263-.203-1.162-.418-2.322-.593-3.488-.179-1.194-.307-2.396-.473-3.592-.192-1.39-.408-2.777-.598-4.167-.074-.539-.095-1.084-.16-1.624-.088-.733-.204-1.463-.289-2.197-.069-.59-.09-1.186-.169-1.774-.117-.877-.287-1.748-.393-2.626-.052-.435-.009-.88-.009-1.388l.749-.075 4.546 4.009v3.405l.101-.001c0-1.525.024-3.05-.007-4.574-.031-1.526-.116-3.051-.173-4.472.422-.581.853-.469 1.128-.348l1.553-.148c.352.415.726.759.978 1.176.327.542.76.976 1.181 1.434.451.492.826 1.053 1.278 1.544.69.75.922 1.582.972 2.616.05 1.043.051 2.089.095 3.133.061 1.444.089 2.89.163 4.334.026.51.141 1.016.262 1.523-.046-1.063.184-2.129-.092-3.191-.049-.189-.025-.398-.025-.598-.002-.928.007-1.856-.006-2.784a4.708 4.708 0 0 0-.102-.885c-.078-.38.052-.578.457-.611.465.255.614.66.746 1.177.247.967.647 1.898 1.01 2.834.657 1.69 1.32 3.378 2.008 5.056.363.886.781 1.751 1.177 2.624.527 1.165 1.079 2.32 1.572 3.499.167.399.247.856.261 1.289.035 1.128-.001 2.257.018 3.386.007.417.122.832.125 1.249.003.339-.029.701-.149 1.014a15.489 15.489 0 0 0-.75 2.685c-.11.582-.543.874-1.252.959-1.059.127-2.112.299-3.17.436-.888.116-1.778.214-2.668.311-.545.059-1.093.096-1.638.156-.143.016-.28.077-.42.12-.25.077-.498.157-.8.253zm1.574-28.743c-1.162-1.51-2.454-2.855-3.924-4.197.006 2.341-.134 4.576.456 6.785l.674.048c.781.867 1.559 1.674 2.263 2.541.274.338.355.819.223 1.274-.244.845-.056 1.692-.048 2.539.128-1.061.183-2.123.234-3.186.011-.225-.011-.452.007-.676.095-1.208.226-2.414.285-3.623.022-.485-.106-.978-.17-1.505z" data-color="5" class="icon2"></path><path d="M86.175 23.218c1.277-.456 2.452-.907 3.649-1.293 1.36-.439 2.743-.809 4.11-1.228a6.12 6.12 0 0 1 2.419-.248c1.206 1.233 2.443 2.41 3.575 3.68a35.666 35.666 0 0 1 2.805 3.545c.692 1.011 1.214 2.139 1.776 3.233.111.217.139.538.071.773-.196.681-.406 1.369-.714 2.004-.291.599-.88 1.043-1.495 1.147-.631.107-1.119.432-1.602.723-.716.433-1.332 1.035-1.963 1.596-.274.244-.478.565-.711.847h-.814c-.134-.696-.072-1.367-.057-2.031.01-.442.103-.882.132-1.324a36.38 36.38 0 0 0 .067-1.717 1.254 1.254 0 0 0-.081-.487c-.175-.428-.377-.846-.602-1.344-.514.335-.987.626-1.44.943a21.39 21.39 0 0 0-1.24.942c-.233.19-.441.413-.651.629-1.169 1.206-2.335 2.415-3.504 3.622-.347.358-.781.414-1.248.34-.562-.09-1.122-.195-1.685-.277-1.055-.155-2.11-.31-3.169-.44-.348-.043-.706-.007-1.078-.007-.636-.664-1.23-1.322-.968-2.343.152-.594.295-1.189.44-1.785.494-2.033 1.256-3.973 2.126-5.869.565-1.227 1.225-2.409 1.852-3.631z" data-color="5" class="icon2"></path><path d="M87.186 176.74c.079-1.398-.498-2.722-.239-4.109.377-.184.719-.184 1.084.003.813.416 1.638.81 2.458 1.213.375.184.745.231 1.151.061.659-.277 1.348-.486 1.994-.787 1.842-.857 3.671-1.743 5.501-2.624.177-.085.327-.225.5-.319.437-.239.869-.51 1.335-.376.864.606 1.683 1.16 2.48 1.744 1.098.805 2.162 1.658 3.275 2.44.667.469 1.376.786 2.269.804 1.851.037 3.698.232 5.698.373.39.28.685.824.941 1.386.259.569.122.853-.491 1.077-1.25.457-2.529.846-3.748 1.372-.861.372-1.72.449-2.628.436a136.299 136.299 0 0 0-4.476 0c-1.937.036-3.809-.342-5.67-.808a639.525 639.525 0 0 1-3.372-.855 2.93 2.93 0 0 1-.418-.14c-.328-.139-.64-.293-.963.042-.084.087-.278.086-.423.097-1.235.089-2.433-.189-3.643-.355-.615-.084-1.229-.173-1.846-.24-.37-.042-.372-.025-.769-.435z" data-color="5" class="icon2"></path><path d="m85.563 165.906 1.137.549c.059.692.227 1.407-.708 1.982l-2.061.341c-1.003-.256-1.824-1.475-1.709-2.798.34-.423.867-.399 1.331-.516.546.504 1.202.65 2.01.442z" data-color="5" class="icon2"></path><path d="M111.59 72.72c.158.657-.129 1.05-.482 1.41-.676-.055-1.033-.415-1.212-1.035-.338-1.172-1.016-2.159-1.801-3.08-.38-.446-.673-.931-.698-1.635.19-.06.404-.207.582-.172.93.182 1.721.644 2.381 1.315.373.379.371.911.495 1.386.081.311.142.632.159.952.022.418.221.694.576.859z" data-color="5" class="icon2"></path><path d="M103.494 54.35h1.244c0 .296.027.537-.005.769a49.459 49.459 0 0 1-.321 2.059c-.067.377-.23.691-.657.807-.434.118-.747-.071-.989-.373-.309-.385-.574-.804-.862-1.216.288-.39.532-.733.791-1.065.257-.331.529-.651.799-.981z" data-color="5" class="icon2"></path><path d="M107.047 53.053a97.52 97.52 0 0 1-.19-.417c-.167.028-.341.098-.5.073-.158-.024-.301-.143-.487-.24.067-.195.079-.391.183-.503a19.11 19.11 0 0 1 1.279-1.267c.239-.213.521-.393.892-.246.101.04.248.002.364-.033a.806.806 0 0 1 .865.219v1.487c-.76.357-1.404 1.033-2.406.927z" data-color="5" class="icon2"></path><path d="m86.606 62.795.257-3.356c.007-.1.001-.2.002-.3.01-.945.028-1.89.028-2.836 0-.395.134-.704.383-1.02a39.052 39.052 0 0 1 4.569-4.874c.157.366.325.697.443 1.045.639 1.874 1.594 3.596 2.599 5.291 1.207 2.038 2.468 4.044 3.642 6.1.74 1.296 1.346 2.665 2.042 3.987.941 1.787 1.828 3.6 2.948 5.295.541.818 1.01 1.67 1.85 2.363.658.089 1.402.194 2.147.289.679.087.954.407.88 1.079-.038.343-.118.681-.197 1.125l-.822.52c.071.181.117.426.248.614 1.117 1.605 1.858 3.418 2.867 5.083.221.364.399.773.991.63 0 .801-.011 1.525.002 2.249.025 1.327.065 2.653.094 3.98.002.095-.033.191-.045.287-.092.759.18.978.999.749 0-.71.075-1.446-.028-2.157-.064-.443.016-.848.088-1.246.05-.277.346-.51.585-.834-.039-1.232-.648-2.51-.572-3.86l.192-.04c.066.117.164.228.193.354.401 1.713 1.246 3.244 2 4.812.365.76.809 1.494 1.075 2.287.242.721.309 1.504.418 2.265.096.672-.2 1.312-.218 1.977-.007.266-.04.562.057.796.626 1.514 1.286 3.013 1.93 4.519.107.25.192.509.302.8l-2.652 2.013c.104.608.44 1.108.846 1.544a590.88 590.88 0 0 0 4.872 5.143c.398.416.834.795 1.295 1.231-1.078.293-2.071.538-3.048.836-.689.211-1.356.496-2.033.747l-2.847 1.053c-.717-.784-1.409-1.539-2.098-2.296-.436-.479-.873-.959-1.302-1.445-.675-.764-1.353-1.527-2.01-2.307-.12-.142-.163-.358-.211-.547-.068-.264-.107-.535-.179-.907l-.438.476.175.622c-.127.319-.228.57-.326.821-.009.022 0 .05-.001.075-.051 1.445-.078 2.892-.159 4.335a78.67 78.67 0 0 1-.304 3.627c-.131 1.276-.286 2.55-.453 3.822-.128.975-.295 1.946-.44 2.919-.056.372.11.796-.292 1.123l-2.058-13.606c-1.506-.129-3.036.049-4.649.152-.353.477-.748.99-1.12 1.519a84.933 84.933 0 0 0-4.537 7.25c-.122.218-.304.406-.406.632-.132.292-.251.6-.304.913-.128.759-.188 1.53-.33 2.286-.053.281-.239.547-.4.796-.734 1.135-1.485 2.259-2.223 3.391-.402.617-.395.621-.547 1.606 1.599-1.517 2.83-3.222 4.621-4.584-.153.813-.274 1.494-.411 2.172-.182.905-.391 1.805-.559 2.712-.083.448-.336.77-.637 1.08-1.05 1.082-2.097 2.167-3.14 3.247-.099 1.546-.215 3.067-.286 4.589-.048 1.023.002 2.05-.054 3.072-.056 1.02-.212 2.035-.282 3.055-.078 1.147-.116 2.297-.16 3.446-.06 1.576-.068 3.154-.173 4.727-.089 1.338-.297 2.667-.425 4.002-.088.916-.127 1.837-.192 2.807.636.61 1.285 1.203 1.901 1.828.933.949 1.855 1.91 2.754 2.891.189.206.256.521.379.783-.156.452-.421.767-.752 1.095-.616.612-1.123 1.333-1.67 2.012a2.993 2.993 0 0 0-.433.7c3.126-1.223 6.223-2.485 9.328-3.728l.115.134-2.086 3.679c-3.189 1.352-6.427 3.067-10.018 4.206.722.585 1.523.786 2.259 1.215 1.29-.433 2.589-.879 3.897-1.297.215-.069.472-.01.72.075l.586-.29c.097.032.179.041.236.082 1.139.821 2.41 1.402 3.655 2.037 1.624.829 3.228 1.697 4.825 2.576.449.247.88.305 1.373.21 2.063-.397 4.129-.777 6.195-1.162.786-.147 1.571-.297 2.359-.431.195-.033.4-.005.669-.005l.882 1.195c-.161.551-.528.769-1.015.918-1.132.347-2.246.751-3.371 1.12-.821.269-1.635.58-2.476.756-.582.122-1.233.164-1.803.033-.742-.171-1.47-.025-2.199-.113a4.645 4.645 0 0 0-.834-.003c-1.314.081-2.586-.191-3.84-.505-1.723-.431-3.423-.949-5.141-1.402-.332-.087-.698-.045-1.037-.063l-.565.5-5.882-.799c-.298-.446-.472-.883-.508-1.397-.072-1.036-.232-2.066-.282-3.102-.051-1.051-.01-2.107-.014-3.161-.001-.267-.023-.533-.038-.852-.792-.117-1.555.086-2.235-.099-.672-.182-1.432.123-2.121-.47-.048-.498-.089-1.084-.164-1.666-.088-.683-.204-1.362-.309-2.043-.045-.29-.114-.579-.139-.871-.229-2.671-.116-5.349-.171-8.023-.017-.832-.216-1.66-.333-2.49-.034-.244-.103-.487-.102-.73.003-.896-.124-1.773-.291-2.65-.096-.508-.119-1.031-.162-1.549-.06-.717-.105-1.435-.161-2.152-.047-.592-.143-1.184-.14-1.776.003-.646.096-1.291.152-1.971l-.443-.352c-.113-1.074.082-2.107.41-3.133.905-2.824 1.767-5.661 2.686-8.48.6-1.84 1.27-3.659 1.907-5.487.048-.138.121-.278.128-.419.06-1.194.117-2.388.156-3.583.061-1.897.069-3.796.171-5.69.064-1.192.271-2.376.386-3.566.035-.366.221-.768-.189-1.098-.107-.086-.053-.378-.059-.576-.022-.692-.037-1.383-.056-2.111l1.542-.213v-.541l2.749-.215.034.11-.668.476h.945l.644-.73c.75.114 1.584-.268 2.347.31l.792-.193c.05-.195.139-.425.165-.663.066-.596.124-1.194.151-1.793.064-1.425.1-2.85.165-4.275.04-.874.111-1.746.169-2.632.851 1.448 1.147 3.044 1.315 4.644.17 1.611.169 3.239.242 4.848 1.084 0 2.162.008 3.239-.004.374-.004.747-.06 1.121-.089l3.767-.295c.076-.006.152-.004.228-.007.98-.042.98-.042 1.91-.581-.053-.503-.089-1.025-.167-1.54-.433-2.859-.898-5.713-1.309-8.575-.213-1.484-.325-2.983-.502-4.473-.108-.915-.26-1.825-.379-2.739-.181-1.384-.376-2.767-.516-4.155-.069-.684-.212-1.285-.679-1.84-1.326-1.574-2.606-3.186-3.892-4.793-.375-.469-.71-.971-1.057-1.463-.225-.318-.501-.508-.899-.618-2.759-.762-5.508-1.559-8.261-2.342-.577-.164-1.16-.306-1.733-.482-.21-.064-.433-.159-.593-.303-.371-.335-.706-.708-1.183-1.195 3.286.236 6.346.852 9.465 1.428a733.52 733.52 0 0 0-1.175-1.314c-.385-.43-.769-.863-1.16-1.288-.101-.109-.212-.226-.342-.29a1308.819 1308.819 0 0 0-6.746-3.271 5.423 5.423 0 0 0-.977-.366c-1.122-.289-2.052-.868-2.878-1.674-.88-.859-1.821-1.657-2.769-2.512-.032-.414-.142-.859.219-1.291 1.095.713 2.177 1.435 3.278 2.128 1.209.76 2.431 1.5 3.656 2.235.483.29.946.036 1.441-.094-.919-.626-1.901-1.131-2.501-2.201l1.64-.001zm7.436 6.245.121-.1c-.43-.58-.811-1.2-1.357-1.684l-.153.123c.462.554.925 1.108 1.389 1.661zm21.885 30.916v.635l.124.096.239-.353-.363-.378z" opacity=".1"></path><path d="M86.605 84.073c.818.632 1.699.849 2.569 1.089.121.033.247.047.367.081.313.09.673.146.667.582-.005.407-.188.729-.575.892-.206.087-.445.195-.65.164-.473-.07-.879.079-1.312.215-.378.119-.789.131-1.167.188-1.187-.7-1.634-2.001-2.662-2.94.09.332.145.564.216.79.194.614.409 1.222.59 1.84.177.602.452 1.143.782 1.682.69 1.127 1.285 2.31 1.95 3.453.221.381.518.724.814 1.055.356.4.443.885.506 1.379.193 1.509.378 3.018.561 4.528.072.595.118 1.193.203 1.786.18 1.251.384 2.499.563 3.75.045.316.035.64.051.985l-3.953.678.142.39-.266.113.828.289c-.515.098-.868.255-1.191.21a4.042 4.042 0 0 1-2.285-1.127c-.339-.328-.737-.596-1.071-.928-.618-.616-1.209-1.259-1.735-1.811.093-1.435.151-2.746.272-4.051.112-1.202.304-2.397.439-3.597.075-.664.09-1.336.164-2 .066-.586.18-1.166.265-1.75a3.64 3.64 0 0 0 .032-.522c.001-1.093.214-2.158.414-3.225.082-.435.14-.876.183-1.317.066-.691.108-1.384.164-2.076.047-.567.118-1.133.142-1.701a1.44 1.44 0 0 0-.135-.637c-.428-.942-.892-1.867-1.316-2.811-1.068-2.374-2.196-4.721-3.089-7.171-.512-1.405-1.103-2.781-1.651-4.173-.033-.084-.004-.192-.004-.421.271.289.487.483.659.71.863 1.135 1.735 2.264 2.562 3.425.472.664 1.114 1.081 1.82 1.42 1.624.779 3.28 1.49 5.046 1.887 2.722.611 5.297 1.663 7.924 2.559.304.104.592.252.954.409l-.155.597c-3.876.215-7.613-.275-11.447-1.382.485.571.855.997 1.214 1.432.126.153.277.312.329.493.438 1.526.855 3.058 1.272 4.569z" opacity=".1"></path><path d="M84.012 38.285c-.385.228-.769-.013-1.152-.272-.063-.361-.075-.74-.202-1.077-.163-.43-.43-.819-.629-1.236-.081-.17-.178-.384-.14-.549.287-1.265.597-2.526.922-3.782.068-.264.27-.441.543-.566 1.728-.79 3.451-1.592 5.166-2.409.355-.169.627-.161.973.047a135.2 135.2 0 0 0 3.838 2.211c.692.385 1.412.72 2.197 1.117l-1.967 1.996c0 .777-.025 1.528.009 2.276.021.477-.17.808-.52 1.097-.871.718-1.734 1.445-2.679 2.235l3.244 3.296c-.162-.032-.25-.031-.321-.065-.965-.474-1.919-.973-2.894-1.426-.792-.368-.803-.345-1.407-1.043-.405.47-.858.325-1.325.077-1.194-.637-2.393-1.262-3.656-1.927z" opacity=".1"></path><path d="m73.979 50.321 5.609-8.035.481-2.059c2.174.893 4.376 1.456 6.551 2.222l.143 2.344c-.979.813-1.946 1.609-2.907 2.414-1.519 1.272-3.04 2.54-4.546 3.827-.708.605-1.382 1.249-2.069 1.873L75.19 64.632h-.103c-.349-1.038-.701-2.075-1.041-3.116a1.672 1.672 0 0 1-.065-.514c-.003-3.587-.002-7.174-.002-10.681z" opacity=".1"></path><path d="m90.265 157.104 2.529-3.245 5.655 7.901c-.342.121-.629.04-.944-.18a48.02 48.02 0 0 0-5.117-3.128c-.702-.369-1.344-.849-2.123-1.348z" opacity=".1"></path><path d="m97.661 153.469 3.895 1.826-.909 5.688c-.099-.069-.22-.113-.276-.198-.6-.91-1.186-1.829-1.785-2.74-.519-.789-1.047-1.571-1.575-2.354-.543-.805-.543-.89.089-1.617.162-.188.337-.365.561-.605z" opacity=".1"></path><path d="M123.516 103.051c-.379-.532-.721-1.039-1.091-1.525-.678-.89-1.366-1.774-2.065-2.649-.41-.513-.575-1.071-.538-1.729.044-.773.026-1.552.005-2.327-.013-.471-.09-.941-.123-1.412a2.136 2.136 0 0 1 .087-.812c.373.859.773 1.708 1.111 2.581.385.994.689 2.019 1.074 3.013.465 1.201.976 2.384 1.469 3.575.163.392.311.784.071 1.285z" opacity=".1"></path><path d="M96.83 38.585c.568-2.181.497-4.369.004-6.601l.483-.508c.247.189.518.328.695.543.892 1.084 1.276 2.413 1.739 3.698.114.316-.089.619-.345.778-.753.467-1.224 1.167-1.705 1.869-.277.406-.377.418-.871.221z" opacity=".1"></path><path d="m109.49 58.012.133.151-.381 1.048c-.303-.174-.659-.346-.975-.571-.209-.149-.372-.301-.655-.373-.457-.116-.505-.551-.131-.953.565-.607 1.129-1.221 1.749-1.769a24.955 24.955 0 0 1 2.698-2.07c-.067.169-.126.342-.204.506-.368.778-.711 1.571-1.123 2.326-.318.583-.725 1.119-1.111 1.705z" opacity=".1"></path><path d="M104.565 58.013c.251-.183.45-.533.853-.388-.046 2.634.561 5.17.866 7.779-1.037-1.513-1.847-3.101-2.6-4.717-.1-.214-.11-.602.021-.763.458-.565.614-1.24.86-1.911z" opacity=".1"></path><path d="m112.475 64.906.139.553-1.662 3.694h-1.284c-.259-.239-.153-.527.006-.784.418-.677.847-1.348 1.292-2.007.292-.431.621-.838.933-1.256.14-.187.139-.187.576-.2z" opacity=".1"></path><path d="m95.91 32.98.417 2.705c-.48.377-.969.232-1.416.171-.337-.046-.529-.535-.361-.849.36-.67.705-1.354 1.36-2.027z" opacity=".1"></path><path d="M104.548 52.971c.355-.058.492.091.562.382.278 1.152.57 2.3.85 3.421-.468.438-.738.451-.856-.013-.314-1.238-.759-2.47-.556-3.79z" opacity=".1"></path><path d="M97.916 43.393c-.278.367-.429.585-.599.787-.176.209-.43.374-.544.609-.215.445-.539.542-.968.452l-1.086-1.243 3.197-.605z" opacity=".1"></path><path d="M109.927 78.286c.221-.128.376.007.544.188.91.985.913.982.815 2.179l-1.359-2.367z" opacity=".1"></path><path d="m79.815 39.269 1.281-.111c.097-.252.249-.585.355-.932.131-.427.351-.717.87-.653-.002-.918-.805-1.403-1.023-2.145.299-1.225.544-2.445.898-3.633a39.436 39.436 0 0 1 3.022-7.391c.406-.757.939-1.217 1.697-1.578 2.546-1.215 5.205-2.081 7.961-2.668.318-.068.644-.093 1.111-.158 3.728 3.081 6.952 6.688 9.072 11.224-.368.816-.742 1.658-1.127 2.494-.072.156-.162.331-.294.43-.932.694-1.208 1.738-1.532 2.758a6.22 6.22 0 0 0-.145.576c-.167.782-.406 1.507-1.427 1.645l-1.107 4.291-.862.066-3.019 3.49c.812.322 1.515.62 2.234.878.505.181.855.485 1.075.972.756 1.676 1.527 3.345 2.287 5.019.245.541.476 1.088.766 1.751.38-.431.696-.797 1.019-1.157.319-.354.644-.702.972-1.058 0-.269-.002-.519 0-.769.006-.662.468-1.38 1.101-1.539.272-.068.603.093.911.151l1.221-1.145c.534-.5.702-.526 1.317-.154.535.324 1.06.664 1.583.993l.462-.905c.52-.118.845.051.991.501.305.946.639 1.887.861 2.853.073.317-.11.729-.267 1.055-.722 1.503-1.476 2.992-2.239 4.527l1.255.769c.479 1.154.994 2.365 1.48 3.587.173.436.292.896.403 1.353a2.29 2.29 0 0 1-.185 1.654c-.514 1.017-.93 2.083-1.404 3.165l2.439 2.897c.693.822 1.38 1.649 2.089 2.458.263.299.284.618.225.975-.142.857-.262 1.718-.428 2.57-.05.254-.223.485-.35.75l-.864.057 4.363 5.11-.097.051c.199.474.354.971.605 1.416.762 1.354 1.164 2.85 1.757 4.27 1.371 3.28 2.754 6.556 4.146 9.827.32.753.711 1.477 1.037 2.229.115.265.195.573.189.859-.028 1.325.046 2.671-.176 3.967-.281 1.636-.253 3.329-.87 4.911-.302.773-.526.96-1.347 1.059-1.416.171-2.824.397-4.239.576-1.17.148-2.343.262-3.452.384l-.971.537c-2.308-2.191-4.344-4.501-6.352-6.972-.019.197-.036.325-.044.453-.096 1.673-.188 3.346-.286 5.019-.051.874-.095 1.748-.175 2.62-.096 1.042-.223 2.082-.346 3.121-.074.619-.165 1.236-.252 1.853-.194 1.377-.368 2.758-.59 4.131-.293 1.812-.611 3.62-.942 5.426-.327 1.782-.698 3.555-1.024 5.337-.233 1.269-.416 2.546-.635 3.818-.341 1.981-.704 3.958-1.037 5.94-.329 1.958-.616 3.924-.949 5.881-.374 2.198-.792 4.388-1.166 6.586-.234 1.371-.422 2.75-.641 4.197h1.195c.371.598.712 1.139 1.045 1.685.294.481.187.866-.227 1.253-.439.41-.784.918-1.217 1.336-.539.52-.554 1.16-.474 1.806.071.577.159 1.125-.361 1.539.062.108.081.2.135.229 1.674.884 3.171 2.025 4.67 3.162.4.303.826.572 1.222.879.796.616 1.758.549 2.671.628 1.457.126 2.919.203 4.381.261.671.026 1.15.293 1.502.844.307.48.634.948.88 1.315-.221.991-.948 1.228-1.669 1.46-1.664.535-3.339 1.039-4.993 1.604-.563.192-1.117.229-1.691.212-1.236-.037-2.473-.131-3.709-.109-1.633.029-3.209-.285-4.775-.657-1.439-.341-2.857-.773-4.283-1.17-.265-.074-.523-.174-.824-.275l-.561.592c-1.047-.106-2.099-.193-3.145-.323-.971-.121-1.933-.314-2.904-.426-.544-.063-.81-.386-.951-.831-.105-.33-.133-.688-.167-1.036-.105-1.068-.24-2.136-.28-3.206-.036-.968.04-1.941.066-2.911.004-.171.001-.342.001-.553-1.042-.071-2.043-.198-3.043-.191-.969.006-1.458-.533-1.509-1.377-.071-1.165-.336-2.316-.449-3.48-.102-1.042-.11-2.092-.161-3.139-.014-.299-.042-.597-.047-.896-.011-.727-.087-1.462 0-2.178.114-.935-.002-1.844-.101-2.76-.185-1.716-.379-3.431-.572-5.146-.239-2.111-.5-4.219-.714-6.332-.106-1.044-.184-2.098-.164-3.145.012-.609.202-1.226.381-1.819a279.435 279.435 0 0 1 1.941-6.216c.7-2.13 1.396-4.264 2.2-6.355.504-1.312.705-2.65.754-4.022.136-3.752.25-7.504.357-11.257.031-1.069.053-2.144-.223-3.213-1.02-.128-1.798-.618-2.454-1.364-.326-.371-.789-.621-1.144-.971a18.225 18.225 0 0 1-1.255-1.395.847.847 0 0 1-.176-.541c.108-1.772.199-3.547.373-5.313.202-2.063.488-4.118.726-6.177.218-1.884.421-3.77.632-5.655.097-.868.228-1.734.278-2.605a2.4 2.4 0 0 0-.215-1.074c-1.211-2.71-2.514-5.382-3.657-8.12-1.163-2.787-2.187-5.631-3.247-8.459-.445-1.188-.817-2.403-1.237-3.601a5.121 5.121 0 0 1-.276-1.913c.049-1.276.124-2.553.113-3.83-.016-1.952-.092-3.904-.148-5.855-.011-.391.059-.727.354-1.027.222-.226.363-.531.547-.795 1.045-1.501 2.084-3.006 3.141-4.499.492-.694 1.026-1.359 1.524-2.049.112-.155.175-.356.217-.545.17-.788.328-1.571.526-2.513zm-.637 4.237c-.039.049-.124.138-.191.239-.429.647-.849 1.3-1.281 1.944a1461.305 1461.305 0 0 1-3.14 4.664c-.234.347-.313.718-.299 1.136.064 1.879.118 3.758.154 5.637.021 1.104-.007 2.208.008 3.312.004.294.047.6.141.877.756 2.233 1.488 4.474 2.303 6.685 1.768 4.8 3.517 9.609 5.877 14.168.11.213.166.472.179.713.098 1.807-.158 3.595-.336 5.386-.162 1.634-.385 3.262-.576 4.894-.067.569-.111 1.14-.178 1.709-.137 1.163-.296 2.323-.419 3.488-.118 1.117-.185 2.24-.306 3.357-.122 1.119.075 2.079 1.224 2.716.04-.839.086-1.632.115-2.426.073-2.027.105-4.057.218-6.082.09-1.622.306-3.237.408-4.858.094-1.499.145-3.003.148-4.505a6.104 6.104 0 0 1 .453-2.353c.141.646.265 1.295.3 1.948.163 3.01-.221 6.004-.304 9.007-.002.075-.016.15-.021.225-.089 1.196-.232 2.39-.254 3.587-.041 2.228-.012 4.457-.012 6.748.393.375.902.774 1.5.804 1.286.063 2.58.035 3.868-.014 1.082-.041 2.158-.203 3.24-.246 2.044-.08 4.091-.102 6.136-.172.806-.027 1.609-.121 2.414-.178a818.65 818.65 0 0 1 3.847-.265c.906-.06 1.814-.099 2.719-.173.441-.036.877-.13 1.304-.196.008-.096.022-.147.014-.195-.405-2.461-.822-4.921-1.216-7.384-.177-1.11-.317-2.226-.461-3.34-.148-1.138-.301-2.275-.417-3.416-.142-1.393-.235-2.791-.372-4.185a85.75 85.75 0 0 0-.413-3.65c-.229-1.622-.507-3.236-.76-4.829l-2.37.146c-4.256-3.91-8.261-8.029-11.873-12.397-.352-.021-.623-.025-.89-.057-.597-.071-1.191-.169-1.789-.234-.652-.07-1.311-.091-1.961-.177-.445-.059-.881-.188-1.32-.291-.118-.028-.231-.076-.346-.114l.148-.256c.206-.007.413-.03.618-.017.477.03.952.1 1.429.113.733.021 1.468-.005 2.201.015.355.01.707.082 1.141.135-.816-.927-1.429-1.748-1.404-2.889.017-.771-.149-1.545-.181-2.319-.034-.815-.008-1.634-.008-2.598.099.224.157.31.174.402.27 1.492.548 2.982.796 4.477.173 1.046.573 1.947 1.428 2.629.333.266.622.589.911.905 1.884 2.057 3.727 4.151 5.653 6.168 1.737 1.818 3.564 3.552 5.35 5.324.369.366.769.457 1.302.337 1.024-.23 2.07-.363 3.106-.545.264-.046.522-.122.741-.174l1.139-4.711c-.091-.159-.239-.419-.39-.679-.5-.864-1.064-1.698-1.489-2.596-1.121-2.368-2.187-4.762-3.266-7.15-1.12-2.48-2.231-4.964-3.341-7.449-.681-1.526-1.352-3.057-2.028-4.585-.205-.464-.45-.88-.968-1.089-1.957-.789-3.891-1.639-5.867-2.377-.894-.334-1.743-.741-2.593-1.156-.189-.092-.352-.236-.527-.357l.053-.147 1.089.208-3.048-3.685c-1.896-.483-3.82-1.25-5.958-1.242l-.566 2.996c1.217.294 2.411.076 3.583.192 1.173.116 2.339.293 3.509.444l.714.758c-2.911-.253-5.684-.491-8.516-.735zm10.599 63.884c0 .333-.018.557.003.779.088.943.23 1.882.274 2.827.084 1.826.116 3.654.169 5.481.004.15.007.301.016.451.093 1.446.215 2.891.274 4.338.047 1.152-.002 2.308.025 3.462.028 1.199.103 2.397.136 3.596.006.214-.072.439-.149.645-.164.443-.34.883-.533 1.315-.946 2.116-1.408 4.345-1.588 6.64-.064.82-.105 1.642-.163 2.463-.05.697-.107 1.394-.166 2.091-.091 1.067-.245 2.132-.271 3.2-.08 3.23-.109 6.462-.16 9.693-.049 3.057-.135 6.115-.141 9.172-.005 2.503.085 5.006.131 7.51.006.344.001.688.001.97 1.01.458 1.94.831 2.817 1.302.396.213.7.264 1.118.108 3.058-1.139 5.956-2.604 8.75-4.138-.086-.31-.183-.569-.225-.837-.05-.32-.013-.657-.085-.97-.165-.71.086-1.269.546-1.783.553-.618 1.095-1.246 1.64-1.871.048-.055.087-.119.139-.193l-.251-.635c-.469 0-.897-.007-1.326.002-.431.009-.862.031-1.18-.269-.228-.455.036-.689.318-.852.291-1.83.562-3.602.858-5.37.375-2.239.774-4.474 1.156-6.712.344-2.016.674-4.035 1.021-6.051.364-2.109.748-4.214 1.11-6.323.372-2.16.707-4.327 1.098-6.483.422-2.329.925-4.643 1.328-6.975.365-2.116.681-4.241.95-6.371.288-2.279.496-4.567.739-6.852.092-.87.21-1.739.267-2.611.037-.561.135-1.138-.086-1.775-.538.06-1.055.137-1.576.174-1.482.105-2.965.196-4.448.289-1.685.105-3.368.236-5.055.302-2.171.085-4.344.116-6.516.176-.298.006-.594.051-.965.085zm34.502 4.335c.095-.206.175-.336.217-.477.311-1.047.62-2.094.916-3.145.038-.136.013-.294-.001-.441-.03-.321-.098-.641-.102-.963-.013-1.253.003-2.507-.015-3.76a2.323 2.323 0 0 0-.165-.872 424.519 424.519 0 0 0-2.576-5.817c-1.163-2.569-2.176-5.196-3.106-7.856-.097-.278-.19-.558-.331-.973 0 1.541-.096 2.926.024 4.291.148 1.686.032 3.35-.111 5.021-.006.075-.096.143-.182.264-.09-.194-.163-.322-.209-.458-.513-1.513-.533-3.093-.602-4.66-.095-2.128-.122-4.259-.182-6.388-.019-.688-.206-1.29-.683-1.842-1.116-1.29-2.178-2.627-3.249-3.956-.235-.291-.49-.485-.905-.457v1.021c.124.103.335.246.509.425.91.938 1.817 1.878 2.709 2.833.272.291.62.598.708.953.208.841.413 1.702.25 2.588a5.473 5.473 0 0 0-.089.744c-.061 1.351-.109 2.702-.172 4.053-.038.799-.047 1.603-.163 2.392-.077.527.014 1.137-.522 1.652-.608-1.838-.384-3.638-.365-5.322l-2.332-2.741-.152.055c.056 1.096.122 2.191.162 3.287.009.257-.068.518-.107.787-.887.063-1.728.386-2.462-.488l-.302-6.374-4.342-3.728c-.053 1.421 2.898 22.331 3.435 24.452l-.446.549 5.962 6.724.516-.468a7.79 7.79 0 0 0 1.965.008c1.617-.203 3.229-.443 4.843-.67.54-.076 1.084-.159 1.657-.243zm-38.016 53.714c.054-1.417.127-2.735.149-4.053.027-1.579-.002-3.159.016-4.738.037-3.377.124-6.755.123-10.132-.001-2.411.299-4.793.516-7.185.128-1.417.264-2.833.433-4.245.094-.787.181-1.591.418-2.342.434-1.374.986-2.711 1.467-4.071.114-.323.198-.674.201-1.013.006-.548-.082-1.097-.103-1.647-.108-2.778-.254-5.555-.295-8.334-.038-2.628.049-5.258.059-7.887.003-.766-.071-1.533-.111-2.329l-3.165.186c0 .222-.008.417.001.613.045.899.14 1.798.134 2.697-.027 4.209-.088 8.417-.117 12.626a6.788 6.788 0 0 1-.374 2.125c-.722 2.162-1.481 4.312-2.179 6.481-.721 2.241-1.396 4.496-2.075 6.75-.207.687-.418 1.379-.354 2.115.043.498.058.998.109 1.495.07.691.162 1.38.243 2.07.07.593.151 1.186.202 1.78.068.794.102 1.59.169 2.384.046.546.124 1.09.188 1.635.084.717.166 1.434.254 2.151.087.713.211 1.424.264 2.139.081 1.095.168 2.194.157 3.29-.022 2.075-.113 4.15-.172 6.1.648.802 1.035 1.07 2.386 1.407.455.112.975-.039 1.456-.068zM96.03 20.811c-.634.099-1.263.144-1.863.302-.993.262-1.971.585-2.948.904-1.169.382-2.315.845-3.501 1.162-.92.246-1.414.846-1.832 1.609-1.738 3.173-2.913 6.549-3.706 10.063-.037.165-.005.346-.005.492l.766 1.023 6.333.777c.903-.873 1.861-1.696 2.694-2.63 1.007-1.13 2.087-2.165 3.314-3.048.478-.344.991-.641 1.563-1.007.228.349.446.593.563.878.296.723.704 1.436.394 2.269-.033.088-.001.199-.007.299-.035.574-.088 1.147-.105 1.722-.018.635-.004 1.27-.004 2.037.235-.258.373-.429.531-.579.815-.774 1.589-1.557 2.723-1.952.782-.273 1.452-.871 2.157-1.345.158-.107.3-.283.375-.459.273-.638.515-1.289.748-1.884-.054-.145-.076-.217-.108-.284a26.482 26.482 0 0 0-5.292-7.437c-.927-.922-1.808-1.886-2.79-2.912zm-8.331 155.888 5.737.73c.344-.634.837-.459 1.246-.359 1.405.346 2.797.742 4.196 1.113 1.896.503 3.81.866 5.79.822 1.231-.027 2.464.051 3.694.03.698-.012 1.428-.019 2.084-.221 1.409-.433 2.782-.987 4.165-1.502.246-.091.474-.232.78-.384l-1.038-1.442c-1.285-.045-2.493-.077-3.7-.133-.856-.039-1.711-.1-2.564-.174a1.263 1.263 0 0 1-.558-.207c-1.11-.731-2.223-1.457-3.309-2.221-1.185-.834-2.343-1.707-3.464-2.528-1.365.684-2.631 1.352-3.926 1.959-1.522.713-3.07 1.372-4.606 2.058-.842.376-1.593.306-2.398-.21-.8-.513-1.713-.854-2.61-1.286l.481 3.955zm6.114-143.032-.151 3.37-.197.023c-.585-.749-.39-1.714-.546-2.692-.289.314-.492.531-.691.751-.708.782-1.416 1.564-2.121 2.349-.313.349-.708.462-1.16.402-.498-.065-.994-.15-1.492-.212a680.094 680.094 0 0 0-4.267-.517c-.067-.008-.14.035-.225.059v.51c2.475.483 4.673 1.557 6.86 2.688 2.185 1.13 4.266 2.399 6.143 3.836l.065 1.109c.31-.352.517-.599.737-.834.674-.718 1.098-1.711 2.183-1.943l1.237-4.087c.864-.103 1.078-.711 1.251-1.359.115-.431.252-.857.373-1.287.041-.144.063-.293.117-.552-.372.224-.649.353-.883.537a158.833 158.833 0 0 0-3.108 2.503c-.314.261-.604.415-1.025.214 0-.194-.008-.368.001-.541.049-.924.098-1.848.155-2.772.02-.323.048-.647.101-.966.162-.972-.07-1.852-.602-2.793l-2.755 2.204zm12.081 30.527c1.09-.415 1.18-.403 2.08.279.22.167.449.326.653.51.21.19.395.406.592.611-.992.042-1.697-.493-2.455-.897l-.517.254c.184.466.334.913.537 1.335.104.216.269.435.465.57 1.047.721 2.112 1.417 3.209 2.146l1.812-3.641c-.616-1.578-1.26-3.2-1.876-4.832a1.419 1.419 0 0 0-.669-.764l-2.283-1.31c-.716-.411-1.444-.794-2.331-.936-.201.454-.422.901-.597 1.365-.184.487-.324.99-.483 1.485.628 1.287 1.246 2.558 1.863 3.825zm3.115-5.708c.312-.595.628-1.189.936-1.789.456-.889.906-1.782 1.355-2.674.161-.32.214-.626.06-.994-.184-.44-.264-.923-.403-1.441-.195.211-.316.43-.5.525-.819.425-1.646.841-2.494 1.205-.439.189-.891.082-1.267-.242-.419-.36-.838-.72-1.26-1.077-.054-.046-.127-.07-.223-.121l-.376.395.258 4.349c.702.269 1.368.479 1.991.777.653.312 1.265.711 1.923 1.087zM81.874 39.183c.12.062.201.125.292.148 1.307.33 2.613.665 3.924.977.673.16 1.26.387 1.718.969.914 1.164 1.907 2.266 2.845 3.412.36.44.759.764 1.33.896.412.096.805.272 1.203.422.556.209 1.109.425 1.733.665l.338-2.103c-.103-.087-.157-.141-.219-.184-2.587-1.79-5.298-3.369-8.169-4.673-.411-.187-.858-.32-1.229-.566-.943-.623-2.028-.625-3.093-.846l-.673.883zm30.362 34.727c-.476.822-1.321.872-1.782 1.528-.429.61-1.134 1.028-1.718 1.531.305.451.723.38 1.115.382.329.002.696-.049.888.286.581 1.013 1.472.82 2.379.657.491-.089.994-.119 1.568-.184l.458-2.905-3.992-5c.455 1.38.944 2.587 1.084 3.705zm-1.507 10.137v-4.503l-2.402-1.823-2.841.39c.181.71.331 1.355.516 1.989.044.15.191.286.319.394 1.132.958 2.265 1.913 3.409 2.856.283.234.602.423.999.697zm2.644 2.274 2.617 2.942.384-4.499-3.162-3.597.161 5.154zm-1.675-7.134c0 1.002-.008 1.973.002 2.944.023 2.303.042 4.607.091 6.91.014.664.122 1.326.187 1.986.215 0 .366.005.516-.003.044-.002.087-.04.151-.072l-.375-11.765h-.572zm-25.299 87.165c-1.369.504-2.45-.142-3.645-.654l.248 2.14 3.397.203v-1.689zm21.231-98.094c.254.536.402 1.119.752 1.533.832.981 1.396 2.103 1.978 3.224.177.341.362.678.543 1.017l.19-.034c.014-.221.093-.462.032-.659-.634-2.019-1.071-4.176-3.495-5.081zm-5.451-11.981 1.913 1.548c.098-.403.269-.737.237-1.049-.083-.798-.257-1.587-.396-2.387l-1.754 1.888zm5.313-3.592 1.777-1.076c-.423-.493-.908-.756-1.495-.976l-1.31 1.329 1.028.723z"></path><path d="M94.488 95.251c.028.06.077.119.081.182.069 1.02.123 2.041.199 3.06.077 1.043.176 2.085.262 3.127.065.795.121 1.592.188 2.387.025.294.086.587.097.881.004.095-.099.193-.189.352-.297-.333-.296-.679-.324-1.015-.15-1.836-.333-3.671-.438-5.51-.065-1.145-.012-2.297-.012-3.445l.136-.019z"></path><path d="M83.109 60.352c1.445.518 2.598 1.501 3.954 2.308l-.431.705c-1.401-.818-2.713-1.615-3.523-3.013z"></path><path d="M89.883 75.651c-1.663.391-3.181.048-4.602-.808 1.582.014 3.188-.118 4.602.808z"></path><path d="M92.299 86.031c-1.421.252-2.777.806-4.251.872.522-.544 1.196-.812 1.855-1.077.53-.212 1.102-.326 1.663-.455.475-.109.603.008.733.66z"></path><path d="M94.249 89.424c-.603-.521-.677-1.38-.441-4.391.442 1.432.42 2.911.441 4.391z"></path><path d="m84.966 55.547 2.217 1.604-.585.766-1.78-2.226.148-.144z"></path><path d="M99.114 165.249c-2.288.905-4.341 2.074-6.721 2.823.699-1.072 5.153-3.622 6.311-3.663l.41.84z"></path><path d="M89.716 158.544c1.977 1.318 4.009 2.549 5.784 4.367l-1.026.369c-1.584-1.607-3.556-2.783-4.758-4.736z"></path><path d="m96.915 156.884 1.614 2.009c-.353.535-.353.535-.926.623-.41-.81-.79-1.645-.848-2.588l.16-.044z"></path><path d="M115.954 98.178c.093.249.167.36.173.475.08 1.524.177 3.048.216 4.574.034 1.303-.024 2.608 0 3.912.022 1.251.093 2.501.153 3.751.009.192.079.382.119.563-.456.407-.456.407-1.086.035.058-2.379.106-4.805.181-7.231.062-1.977.158-3.951.244-6.079z"></path><path d="M124.82 107.654c-.183.229-.369.466-.776.272-.302-.781-.36-1.63-.383-2.466-.035-1.278-.099-2.547-.303-3.812-.066-.408-.01-.835-.01-1.382.519.629.601 1.287.703 1.901.213 1.276.323 2.568.491 3.852.07.539.181 1.074.278 1.635z"></path><path d="m121.269 108.254-.433.419c-.976-1.025-1.967-1.811-2.704-2.947 1.075.184 2.404 1.416 3.137 2.528z"></path><path d="M119.846 105.673c.341-.411.483-.449.776-.177.512.475 1.007.967 1.563 1.504l-.469.722c-.738-.703-1.403-1.29-1.87-2.049z"></path><path d="M95.545 33.267c.094.547-.366.901-.481 1.38-.119.497-.283.983-.439 1.514a63.738 63.738 0 0 0-.359-.079c-.389-1.308.441-2.058 1.279-2.815z"></path></g></g>
</svg>
</g><g opacity="1" transform="rotate(0 250.9539 233.5273)">
<svg width="291.5778" height="20.4" x="250.9539" y="233.5273" version="1.1" preserveAspectRatio="none" viewBox="3.76 -30.88 556.4000000000001 38.92">
  <g transform="matrix(1 0 0 1 0 0)" class="text"><path id="id-6izo4zJp24" d="M3.76 0L3.76-28L8.96-28L8.96 0L3.76 0Z M29.36-21.60Q33.40-21.60 35.84-19.24Q38.28-16.88 38.28-12.24L38.28-12.24L38.28 0L33.28 0L33.28-11.60Q33.28-14.40 31.96-15.82Q30.64-17.24 28.20-17.24L28.20-17.24Q25.44-17.24 23.84-15.58Q22.24-13.92 22.24-10.80L22.24-10.80L22.24 0L17.24 0L17.24-21.36L22-21.36L22-18.60Q23.24-20.08 25.12-20.84Q27-21.60 29.36-21.60L29.36-21.60Z M57.96-21.60Q62-21.60 64.44-19.24Q66.88-16.88 66.88-12.24L66.88-12.24L66.88 0L61.88 0L61.88-11.60Q61.88-14.40 60.56-15.82Q59.24-17.24 56.80-17.24L56.80-17.24Q54.04-17.24 52.44-15.58Q50.84-13.92 50.84-10.80L50.84-10.80L50.84 0L45.84 0L45.84-21.36L50.60-21.36L50.60-18.60Q51.84-20.08 53.72-20.84Q55.60-21.60 57.96-21.60L57.96-21.60Z M84.24 0.28Q81.00 0.28 78.40-1.12Q75.80-2.52 74.34-5.02Q72.88-7.52 72.88-10.68L72.88-10.68Q72.88-13.84 74.34-16.32Q75.80-18.80 78.40-20.20Q81.00-21.60 84.24-21.60L84.24-21.60Q87.52-21.60 90.12-20.20Q92.72-18.80 94.18-16.32Q95.64-13.84 95.64-10.68L95.64-10.68Q95.64-7.52 94.18-5.02Q92.72-2.52 90.12-1.12Q87.52 0.28 84.24 0.28L84.24 0.28ZM84.24-4Q87.00-4 88.80-5.84Q90.60-7.68 90.60-10.68L90.60-10.68Q90.60-13.68 88.80-15.52Q87.00-17.36 84.24-17.36L84.24-17.36Q81.48-17.36 79.70-15.52Q77.92-13.68 77.92-10.68L77.92-10.68Q77.92-7.68 79.70-5.84Q81.48-4 84.24-4L84.24-4Z M116.24-21.36L121.04-21.36L111.88 0L106.72 0L97.56-21.36L102.76-21.36L109.40-5.52L116.24-21.36Z M132.84-21.60Q137.56-21.60 140.06-19.34Q142.56-17.08 142.56-12.52L142.56-12.52L142.56 0L137.84 0L137.84-2.60Q136.92-1.20 135.22-0.46Q133.52 0.28 131.12 0.28L131.12 0.28Q128.72 0.28 126.92-0.54Q125.12-1.36 124.14-2.82Q123.16-4.28 123.16-6.12L123.16-6.12Q123.16-9 125.30-10.74Q127.44-12.48 132.04-12.48L132.04-12.48L137.56-12.48L137.56-12.80Q137.56-15.04 136.22-16.24Q134.88-17.44 132.24-17.44L132.24-17.44Q130.44-17.44 128.70-16.88Q126.96-16.32 125.76-15.32L125.76-15.32L123.80-18.96Q125.48-20.24 127.84-20.92Q130.20-21.60 132.84-21.60L132.84-21.60ZM132.16-3.36Q134.04-3.36 135.50-4.22Q136.96-5.08 137.56-6.68L137.56-6.68L137.56-9.16L132.40-9.16Q128.08-9.16 128.08-6.32L128.08-6.32Q128.08-4.96 129.16-4.16Q130.24-3.36 132.16-3.36L132.16-3.36Z M161.60-4.72L163-1.16Q162.12-0.44 160.86-0.08Q159.60 0.28 158.20 0.28L158.20 0.28Q154.68 0.28 152.76-1.56Q150.84-3.40 150.84-6.92L150.84-6.92L150.84-17.20L147.32-17.20L147.32-21.20L150.84-21.20L150.84-26.08L155.84-26.08L155.84-21.20L161.56-21.20L161.56-17.20L155.84-17.20L155.84-7.04Q155.84-5.48 156.60-4.66Q157.36-3.84 158.80-3.84L158.80-3.84Q160.48-3.84 161.60-4.72L161.60-4.72Z M168.32 0L168.32-21.36L173.32-21.36L173.32 0L168.32 0ZM170.84-24.88Q169.48-24.88 168.56-25.74Q167.64-26.60 167.64-27.88L167.64-27.88Q167.64-29.16 168.56-30.02Q169.48-30.88 170.84-30.88L170.84-30.88Q172.20-30.88 173.12-30.06Q174.04-29.24 174.04-28L174.04-28Q174.04-26.68 173.14-25.78Q172.24-24.88 170.84-24.88L170.84-24.88Z M193.20-21.60Q197.24-21.60 199.68-19.24Q202.12-16.88 202.12-12.24L202.12-12.24L202.12 0L197.12 0L197.12-11.60Q197.12-14.40 195.80-15.82Q194.48-17.24 192.04-17.24L192.04-17.24Q189.28-17.24 187.68-15.58Q186.08-13.92 186.08-10.80L186.08-10.80L186.08 0L181.08 0L181.08-21.36L185.84-21.36L185.84-18.60Q187.08-20.08 188.96-20.84Q190.84-21.60 193.20-21.60L193.20-21.60Z M226.32-21.36L231.08-21.36L231.08-3.24Q231.08 8.04 219.56 8.04L219.56 8.04Q216.48 8.04 213.72 7.26Q210.96 6.48 209.16 5L209.16 5L211.40 1.24Q212.80 2.40 214.94 3.10Q217.08 3.80 219.28 3.80L219.28 3.80Q222.80 3.80 224.44 2.20Q226.08 0.60 226.08-2.68L226.08-2.68L226.08-3.80Q224.80-2.40 222.96-1.68Q221.12-0.96 218.92-0.96L218.92-0.96Q215.88-0.96 213.42-2.26Q210.96-3.56 209.54-5.92Q208.12-8.28 208.12-11.32L208.12-11.32Q208.12-14.36 209.54-16.70Q210.96-19.04 213.42-20.32Q215.88-21.60 218.92-21.60L218.92-21.60Q221.24-21.60 223.14-20.84Q225.04-20.08 226.32-18.52L226.32-18.52L226.32-21.36ZM219.68-5.20Q222.52-5.20 224.34-6.90Q226.16-8.60 226.16-11.32L226.16-11.32Q226.16-14 224.34-15.68Q222.52-17.36 219.68-17.36L219.68-17.36Q216.80-17.36 214.98-15.68Q213.16-14 213.16-11.32L213.16-11.32Q213.16-8.60 214.98-6.90Q216.80-5.20 219.68-5.20L219.68-5.20Z M287.52-28L292.48-28L283.20 0L277.68 0L270.76-20.72L263.72 0L258.16 0L248.88-28L254.28-28L261.24-6.72L268.48-28L273.28-28L280.36-6.60L287.52-28Z M315.92-10.56Q315.92-10.04 315.84-9.08L315.84-9.08L299.08-9.08Q299.52-6.72 301.38-5.34Q303.24-3.96 306.00-3.96L306.00-3.96Q309.52-3.96 311.80-6.28L311.80-6.28L314.48-3.20Q313.04-1.48 310.84-0.60Q308.64 0.28 305.88 0.28L305.88 0.28Q302.36 0.28 299.68-1.12Q297.00-2.52 295.54-5.02Q294.08-7.52 294.08-10.68L294.08-10.68Q294.08-13.80 295.50-16.30Q296.92-18.80 299.44-20.20Q301.96-21.60 305.12-21.60L305.12-21.60Q308.24-21.60 310.70-20.22Q313.16-18.84 314.54-16.34Q315.92-13.84 315.92-10.56L315.92-10.56ZM305.12-17.60Q302.72-17.60 301.06-16.18Q299.40-14.76 299.04-12.40L299.04-12.40L311.16-12.40Q310.84-14.72 309.20-16.16Q307.56-17.60 305.12-17.60L305.12-17.60Z M333.76-21.60Q336.88-21.60 339.34-20.24Q341.80-18.88 343.20-16.40Q344.60-13.92 344.60-10.68L344.60-10.68Q344.60-7.44 343.20-4.94Q341.80-2.44 339.34-1.08Q336.88 0.28 333.76 0.28L333.76 0.28Q331.56 0.28 329.74-0.48Q327.92-1.24 326.68-2.76L326.68-2.76L326.68 0L321.92 0L321.92-29.68L326.92-29.68L326.92-18.76Q328.20-20.16 329.94-20.88Q331.68-21.60 333.76-21.60L333.76-21.60ZM333.20-4Q335.96-4 337.74-5.84Q339.52-7.68 339.52-10.68L339.52-10.68Q339.52-13.68 337.74-15.52Q335.96-17.36 333.20-17.36L333.20-17.36Q331.40-17.36 329.96-16.54Q328.52-15.72 327.68-14.20Q326.84-12.68 326.84-10.68L326.84-10.68Q326.84-8.68 327.68-7.16Q328.52-5.64 329.96-4.82Q331.40-4 333.20-4L333.20-4Z M371.96 0.40Q368.72 0.40 365.70-0.52Q362.68-1.44 360.92-2.96L360.92-2.96L362.72-7Q364.44-5.64 366.94-4.78Q369.44-3.92 371.96-3.92L371.96-3.92Q375.08-3.92 376.62-4.92Q378.16-5.92 378.16-7.56L378.16-7.56Q378.16-8.76 377.30-9.54Q376.44-10.32 375.12-10.76Q373.80-11.20 371.52-11.76L371.52-11.76Q368.32-12.52 366.34-13.28Q364.36-14.04 362.94-15.66Q361.52-17.28 361.52-20.04L361.52-20.04Q361.52-22.36 362.78-24.26Q364.04-26.16 366.58-27.28Q369.12-28.40 372.80-28.40L372.80-28.40Q375.36-28.40 377.84-27.76Q380.32-27.12 382.12-25.92L382.12-25.92L380.48-21.88Q378.64-22.96 376.64-23.52Q374.64-24.08 372.76-24.08L372.76-24.08Q369.68-24.08 368.18-23.04Q366.68-22 366.68-20.28L366.68-20.28Q366.68-19.08 367.54-18.32Q368.40-17.56 369.72-17.12Q371.04-16.68 373.32-16.12L373.32-16.12Q376.44-15.40 378.44-14.62Q380.44-13.84 381.86-12.24Q383.28-10.64 383.28-7.92L383.28-7.92Q383.28-5.60 382.02-3.72Q380.76-1.84 378.20-0.72Q375.64 0.40 371.96 0.40L371.96 0.40Z M398.76 0.28Q395.52 0.28 392.92-1.12Q390.32-2.52 388.86-5.02Q387.40-7.52 387.40-10.68L387.40-10.68Q387.40-13.84 388.86-16.32Q390.32-18.80 392.92-20.20Q395.52-21.60 398.76-21.60L398.76-21.60Q402.04-21.60 404.64-20.20Q407.24-18.80 408.70-16.32Q410.16-13.84 410.16-10.68L410.16-10.68Q410.16-7.52 408.70-5.02Q407.24-2.52 404.64-1.12Q402.04 0.28 398.76 0.28L398.76 0.28ZM398.76-4Q401.52-4 403.32-5.84Q405.12-7.68 405.12-10.68L405.12-10.68Q405.12-13.68 403.32-15.52Q401.52-17.36 398.76-17.36L398.76-17.36Q396.00-17.36 394.22-15.52Q392.44-13.68 392.44-10.68L392.44-10.68Q392.44-7.68 394.22-5.84Q396.00-4 398.76-4L398.76-4Z M416.16 0L416.16-29.68L421.16-29.68L421.16 0L416.16 0Z M444.60-21.36L449.60-21.36L449.60 0L444.84 0L444.84-2.72Q443.64-1.28 441.84-0.50Q440.04 0.28 437.96 0.28L437.96 0.28Q433.68 0.28 431.22-2.10Q428.76-4.48 428.76-9.16L428.76-9.16L428.76-21.36L433.76-21.36L433.76-9.84Q433.76-6.96 435.06-5.54Q436.36-4.12 438.76-4.12L438.76-4.12Q441.44-4.12 443.02-5.78Q444.60-7.44 444.60-10.56L444.60-10.56L444.60-21.36Z M468.80-4.72L470.20-1.16Q469.32-0.44 468.06-0.08Q466.80 0.28 465.40 0.28L465.40 0.28Q461.88 0.28 459.96-1.56Q458.04-3.40 458.04-6.92L458.04-6.92L458.04-17.20L454.52-17.20L454.52-21.20L458.04-21.20L458.04-26.08L463.04-26.08L463.04-21.20L468.76-21.20L468.76-17.20L463.04-17.20L463.04-7.04Q463.04-5.48 463.80-4.66Q464.56-3.84 466.00-3.84L466.00-3.84Q467.68-3.84 468.80-4.72L468.80-4.72Z M475.52 0L475.52-21.36L480.52-21.36L480.52 0L475.52 0ZM478.04-24.88Q476.68-24.88 475.76-25.74Q474.84-26.60 474.84-27.88L474.84-27.88Q474.84-29.16 475.76-30.02Q476.68-30.88 478.04-30.88L478.04-30.88Q479.40-30.88 480.32-30.06Q481.24-29.24 481.24-28L481.24-28Q481.24-26.68 480.34-25.78Q479.44-24.88 478.04-24.88L478.04-24.88Z M497.88 0.28Q494.64 0.28 492.04-1.12Q489.44-2.52 487.98-5.02Q486.52-7.52 486.52-10.68L486.52-10.68Q486.52-13.84 487.98-16.32Q489.44-18.80 492.04-20.20Q494.64-21.60 497.88-21.60L497.88-21.60Q501.16-21.60 503.76-20.20Q506.36-18.80 507.82-16.32Q509.28-13.84 509.28-10.68L509.28-10.68Q509.28-7.52 507.82-5.02Q506.36-2.52 503.76-1.12Q501.16 0.28 497.88 0.28L497.88 0.28ZM497.88-4Q500.64-4 502.44-5.84Q504.24-7.68 504.24-10.68L504.24-10.68Q504.24-13.68 502.44-15.52Q500.64-17.36 497.88-17.36L497.88-17.36Q495.12-17.36 493.34-15.52Q491.56-13.68 491.56-10.68L491.56-10.68Q491.56-7.68 493.34-5.84Q495.12-4 497.88-4L497.88-4Z M527.40-21.60Q531.44-21.60 533.88-19.24Q536.32-16.88 536.32-12.24L536.32-12.24L536.32 0L531.32 0L531.32-11.60Q531.32-14.40 530.00-15.82Q528.68-17.24 526.24-17.24L526.24-17.24Q523.48-17.24 521.88-15.58Q520.28-13.92 520.28-10.80L520.28-10.80L520.28 0L515.28 0L515.28-21.36L520.04-21.36L520.04-18.60Q521.28-20.08 523.16-20.84Q525.04-21.60 527.40-21.60L527.40-21.60Z M550.48 0.28Q547.88 0.28 545.40-0.40Q542.92-1.08 541.44-2.12L541.44-2.12L543.36-5.92Q544.80-4.96 546.82-4.38Q548.84-3.80 550.80-3.80L550.80-3.80Q555.28-3.80 555.28-6.16L555.28-6.16Q555.28-7.28 554.14-7.72Q553.00-8.16 550.48-8.56L550.48-8.56Q547.84-8.96 546.18-9.48Q544.52-10 543.30-11.30Q542.08-12.60 542.08-14.92L542.08-14.92Q542.08-17.96 544.62-19.78Q547.16-21.60 551.48-21.60L551.48-21.60Q553.68-21.60 555.88-21.10Q558.08-20.60 559.48-19.76L559.48-19.76L557.56-15.96Q554.84-17.56 551.44-17.56L551.44-17.56Q549.24-17.56 548.10-16.90Q546.96-16.24 546.96-15.16L546.96-15.16Q546.96-13.96 548.18-13.46Q549.40-12.96 551.96-12.52L551.96-12.52Q554.52-12.12 556.16-11.60Q557.80-11.08 558.98-9.84Q560.16-8.60 560.16-6.32L560.16-6.32Q560.16-3.32 557.56-1.52Q554.96 0.28 550.48 0.28L550.48 0.28Z"/></g>
</svg>
</g><g opacity="1" transform="rotate(0 250.9539 161.5273)">
<svg width="388.7778" height="60" x="250.9539" y="161.5273" version="1.1" preserveAspectRatio="none" viewBox="1.6 -28 246.24 38">
  <g transform="matrix(1 0 0 1 0 0)" class="companyName"><path id="id-D6z1nYkh12" d="M10.56-20.44L10.56-20.44Q13.48-20.44 15.08-19.62Q16.68-18.80 17.42-17.48Q18.16-16.16 18.28-14.44Q18.40-12.72 18.40-10.92L18.40-10.92L18.40 0L15.16 0L15.16-1.96Q14-0.84 12.20-0.18Q10.40 0.48 8.60 0.48L8.60 0.48Q6.88 0.48 5.56-0.12Q4.24-0.72 3.36-1.68Q2.48-2.64 2.04-3.84Q1.60-5.04 1.60-6.28L1.60-6.28Q1.60-7.56 2.08-8.84Q2.56-10.12 3.52-11.14Q4.48-12.16 5.88-12.80Q7.28-13.44 9.08-13.44L9.08-13.44Q10.88-13.44 12.50-12.74Q14.12-12.04 15.16-10.76L15.16-10.76L15.16-12.48Q15.16-15.76 14.18-17.36Q13.20-18.96 10.60-18.96L10.60-18.96Q9.48-18.96 8.64-18.68Q7.80-18.40 7.14-17.90Q6.48-17.40 5.92-16.66Q5.36-15.92 4.80-15L4.80-15L2.72-17.08Q3.28-17.68 3.90-18.28Q4.52-18.88 5.42-19.36Q6.32-19.84 7.56-20.14Q8.80-20.44 10.56-20.44ZM15.16-4.84L15.16-7.92Q14.96-8.40 14.58-9.04Q14.20-9.68 13.60-10.28Q13-10.88 12.16-11.30Q11.32-11.72 10.16-11.72L10.16-11.72Q9-11.72 8.04-11.26Q7.08-10.80 6.42-10.06Q5.76-9.32 5.40-8.32Q5.04-7.32 5.04-6.24L5.04-6.24Q5.04-4.96 5.50-4.02Q5.96-3.08 6.68-2.42Q7.40-1.76 8.28-1.44Q9.16-1.12 9.96-1.12L9.96-1.12Q10.72-1.12 11.50-1.40Q12.28-1.68 12.98-2.18Q13.68-2.68 14.24-3.36Q14.80-4.04 15.16-4.84L15.16-4.84Z M24.80 0L24.80-28L28.20-28L28.20-16.72L28.36-16.72Q28.76-17.76 29.42-18.46Q30.08-19.16 30.92-19.60Q31.76-20.04 32.70-20.24Q33.64-20.44 34.60-20.44L34.60-20.44Q36.60-20.44 38.28-19.70Q39.96-18.96 41.18-17.60Q42.40-16.24 43.08-14.32Q43.76-12.40 43.76-10.04L43.76-10.04Q43.76-7.64 43.08-5.70Q42.40-3.76 41.18-2.38Q39.96-1 38.28-0.26Q36.60 0.48 34.60 0.48L34.60 0.48Q29.84 0.48 28.36-3.24L28.36-3.24L28.20-3.24L28.20 0L24.80 0ZM28.20-11.48L28.20-8Q28.20-6.68 28.62-5.50Q29.04-4.32 29.80-3.46Q30.56-2.60 31.58-2.10Q32.60-1.60 33.76-1.60L33.76-1.60Q35-1.60 36.14-2.06Q37.28-2.52 38.12-3.52Q38.96-4.52 39.46-6.12Q39.96-7.72 39.96-9.96L39.96-9.96Q39.96-12.24 39.46-13.84Q38.96-15.44 38.10-16.46Q37.24-17.48 36.12-17.94Q35-18.40 33.76-18.40L33.76-18.40Q32.64-18.40 31.64-17.94Q30.64-17.48 29.88-16.58Q29.12-15.68 28.66-14.40Q28.20-13.12 28.20-11.48L28.20-11.48Z M56.32-20.44L56.32-20.44Q59.24-20.44 60.84-19.62Q62.44-18.80 63.18-17.48Q63.92-16.16 64.04-14.44Q64.16-12.72 64.16-10.92L64.16-10.92L64.16 0L60.92 0L60.92-1.96Q59.76-0.84 57.96-0.18Q56.16 0.48 54.36 0.48L54.36 0.48Q52.64 0.48 51.32-0.12Q50.00-0.72 49.12-1.68Q48.24-2.64 47.80-3.84Q47.36-5.04 47.36-6.28L47.36-6.28Q47.36-7.56 47.84-8.84Q48.32-10.12 49.28-11.14Q50.24-12.16 51.64-12.80Q53.04-13.44 54.84-13.44L54.84-13.44Q56.64-13.44 58.26-12.74Q59.88-12.04 60.92-10.76L60.92-10.76L60.92-12.48Q60.92-15.76 59.94-17.36Q58.96-18.96 56.36-18.96L56.36-18.96Q55.24-18.96 54.40-18.68Q53.56-18.40 52.90-17.90Q52.24-17.40 51.68-16.66Q51.12-15.92 50.56-15L50.56-15L48.48-17.08Q49.04-17.68 49.66-18.28Q50.28-18.88 51.18-19.36Q52.08-19.84 53.32-20.14Q54.56-20.44 56.32-20.44ZM60.92-4.84L60.92-7.92Q60.72-8.40 60.34-9.04Q59.96-9.68 59.36-10.28Q58.76-10.88 57.92-11.30Q57.08-11.72 55.92-11.72L55.92-11.72Q54.76-11.72 53.80-11.26Q52.84-10.80 52.18-10.06Q51.52-9.32 51.16-8.32Q50.80-7.32 50.80-6.24L50.80-6.24Q50.80-4.96 51.26-4.02Q51.72-3.08 52.44-2.42Q53.16-1.76 54.04-1.44Q54.92-1.12 55.72-1.12L55.72-1.12Q56.48-1.12 57.26-1.40Q58.04-1.68 58.74-2.18Q59.44-2.68 60.00-3.36Q60.56-4.04 60.92-4.84L60.92-4.84Z M81.04-15.44L83.32-15.44Q83.32-16.52 82.76-17.44Q82.20-18.36 81.22-19.02Q80.24-19.68 78.94-20.06Q77.64-20.44 76.16-20.44L76.16-20.44Q74.76-20.44 73.54-20.08Q72.32-19.72 71.42-19Q70.52-18.28 70.00-17.22Q69.48-16.16 69.48-14.76L69.48-14.76Q69.48-12.84 70.36-11.72Q71.24-10.60 72.56-9.92Q73.88-9.24 75.42-8.82Q76.96-8.40 78.28-7.90Q79.60-7.40 80.48-6.64Q81.36-5.88 81.36-4.56L81.36-4.56Q81.36-4 81.18-3.40Q81.00-2.80 80.52-2.30Q80.04-1.80 79.20-1.46Q78.36-1.12 77.08-1.12L77.08-1.12Q75.48-1.12 74.38-1.62Q73.28-2.12 72.58-2.82Q71.88-3.52 71.58-4.24Q71.28-4.96 71.28-5.44L71.28-5.44L68.68-5.44Q68.68-4.32 69.20-3.26Q69.72-2.20 70.78-1.36Q71.84-0.52 73.38-0.02Q74.92 0.48 76.96 0.48L76.96 0.48Q80.64 0.48 82.50-1.14Q84.36-2.76 84.36-5.40L84.36-5.40Q84.36-7.32 83.46-8.48Q82.56-9.64 81.20-10.34Q79.84-11.04 78.26-11.48Q76.68-11.92 75.32-12.40Q73.96-12.88 73.06-13.56Q72.16-14.24 72.16-15.48L72.16-15.48Q72.16-16 72.36-16.58Q72.56-17.16 73.04-17.66Q73.52-18.16 74.32-18.50Q75.12-18.84 76.32-18.84L76.32-18.84Q77.52-18.84 78.40-18.50Q79.28-18.16 79.88-17.66Q80.48-17.16 80.76-16.56Q81.04-15.96 81.04-15.44L81.04-15.44Z M97.12-20.44L97.12-20.44Q100.04-20.44 101.64-19.62Q103.24-18.80 103.98-17.48Q104.72-16.16 104.84-14.44Q104.96-12.72 104.96-10.92L104.96-10.92L104.96 0L101.72 0L101.72-1.96Q100.56-0.84 98.76-0.18Q96.96 0.48 95.16 0.48L95.16 0.48Q93.44 0.48 92.12-0.12Q90.80-0.72 89.92-1.68Q89.04-2.64 88.60-3.84Q88.16-5.04 88.16-6.28L88.16-6.28Q88.16-7.56 88.64-8.84Q89.12-10.12 90.08-11.14Q91.04-12.16 92.44-12.80Q93.84-13.44 95.64-13.44L95.64-13.44Q97.44-13.44 99.06-12.74Q100.68-12.04 101.72-10.76L101.72-10.76L101.72-12.48Q101.72-15.76 100.74-17.36Q99.76-18.96 97.16-18.96L97.16-18.96Q96.04-18.96 95.20-18.68Q94.36-18.40 93.70-17.90Q93.04-17.40 92.48-16.66Q91.92-15.92 91.36-15L91.36-15L89.28-17.08Q89.84-17.68 90.46-18.28Q91.08-18.88 91.98-19.36Q92.88-19.84 94.12-20.14Q95.36-20.44 97.12-20.44ZM101.72-4.84L101.72-7.92Q101.52-8.40 101.14-9.04Q100.76-9.68 100.16-10.28Q99.56-10.88 98.72-11.30Q97.88-11.72 96.72-11.72L96.72-11.72Q95.56-11.72 94.60-11.26Q93.64-10.80 92.98-10.06Q92.32-9.32 91.96-8.32Q91.60-7.32 91.60-6.24L91.60-6.24Q91.60-4.96 92.06-4.02Q92.52-3.08 93.24-2.42Q93.96-1.76 94.84-1.44Q95.72-1.12 96.52-1.12L96.52-1.12Q97.28-1.12 98.06-1.40Q98.84-1.68 99.54-2.18Q100.24-2.68 100.80-3.36Q101.36-4.04 101.72-4.84L101.72-4.84Z M119.28-4.68L119.12-4.68L112.20-20L108.56-20L117.52-0.24L115.40 4.96Q115.04 5.88 114.46 6.44Q113.88 7 113.12 7L113.12 7Q112.40 7 111.74 6.58Q111.08 6.16 110.72 5.36L110.72 5.36L108.96 8.68Q109.72 9.36 110.64 9.68Q111.56 10 112.36 10L112.36 10Q113.48 10 114.32 9.44Q115.16 8.88 115.80 7.98Q116.44 7.08 116.92 5.98Q117.40 4.88 117.84 3.80L117.84 3.80L127.52-20L125.56-20L119.28-4.68Z M130.72-12.20L140.60-12.20L140.60-9.20L130.72-9.20L130.72-12.20Z M147.68-18.40L144.20-18.40L144.20-20L147.68-20L147.68-26.16L151.08-26.16L151.08-20L155.92-20L155.92-18.40L151.08-18.40L151.08-5.12Q151.08-4.64 151.12-4.02Q151.16-3.40 151.36-2.86Q151.56-2.32 151.98-1.96Q152.40-1.60 153.16-1.60L153.16-1.60Q154.12-1.60 154.76-2.32Q155.40-3.04 155.80-3.88L155.80-3.88L157.68-1.96Q155.72 0 153.24 0L153.24 0Q152.20 0 151.20-0.36Q150.20-0.72 149.42-1.46Q148.64-2.20 148.16-3.36Q147.68-4.52 147.68-6.08L147.68-6.08L147.68-18.40Z M180.72-9.96L180.72-9.96Q180.72-7.88 180.00-5.98Q179.28-4.08 177.94-2.64Q176.60-1.20 174.70-0.36Q172.80 0.48 170.44 0.48L170.44 0.48Q168.04 0.48 166.10-0.38Q164.16-1.24 162.82-2.68Q161.48-4.12 160.74-6.02Q160.00-7.92 160.00-9.96L160.00-9.96Q160.00-12.04 160.74-13.94Q161.48-15.84 162.82-17.28Q164.16-18.72 166.10-19.58Q168.04-20.44 170.44-20.44L170.44-20.44Q172.80-20.44 174.70-19.58Q176.60-18.72 177.94-17.28Q179.28-15.84 180.00-13.94Q180.72-12.04 180.72-9.96ZM176.92-9.96L176.92-9.96Q176.92-12.76 176.32-14.50Q175.72-16.24 174.76-17.20Q173.80-18.16 172.64-18.50Q171.48-18.84 170.40-18.84L170.40-18.84Q169.32-18.84 168.16-18.50Q167.00-18.16 166.02-17.20Q165.04-16.24 164.42-14.50Q163.80-12.76 163.80-9.96L163.80-9.96Q163.80-7.20 164.42-5.46Q165.04-3.72 166.02-2.76Q167.00-1.80 168.16-1.46Q169.32-1.12 170.40-1.12L170.40-1.12Q171.48-1.12 172.64-1.46Q173.80-1.80 174.76-2.76Q175.72-3.72 176.32-5.46Q176.92-7.20 176.92-9.96Z M203.68 0L203.68-28L200.28-28L200.28-16.72L200.12-16.72Q199.72-17.76 199.06-18.46Q198.40-19.16 197.56-19.60Q196.72-20.04 195.78-20.24Q194.84-20.44 193.88-20.44L193.88-20.44Q191.88-20.44 190.20-19.70Q188.52-18.96 187.30-17.60Q186.08-16.24 185.40-14.32Q184.72-12.40 184.72-10.04L184.72-10.04Q184.72-7.64 185.40-5.70Q186.08-3.76 187.30-2.38Q188.52-1 190.20-0.26Q191.88 0.48 193.88 0.48L193.88 0.48Q198.60 0.48 200.12-3.24L200.12-3.24L200.28-3.24L200.28 0L203.68 0ZM200.28-11.48L200.28-8Q200.28-6.68 199.84-5.50Q199.40-4.32 198.66-3.46Q197.92-2.60 196.90-2.10Q195.88-1.60 194.72-1.60L194.72-1.60Q193.44-1.60 192.32-2.06Q191.20-2.52 190.36-3.52Q189.52-4.52 189.02-6.12Q188.52-7.72 188.52-9.96L188.52-9.96Q188.52-12.24 189.02-13.84Q189.52-15.44 190.38-16.46Q191.24-17.48 192.36-17.94Q193.48-18.40 194.72-18.40L194.72-18.40Q195.84-18.40 196.84-17.94Q197.84-17.48 198.60-16.58Q199.36-15.68 199.82-14.40Q200.28-13.12 200.28-11.48L200.28-11.48Z M217.44-20.44L217.44-20.44Q220.36-20.44 221.96-19.62Q223.56-18.80 224.30-17.48Q225.04-16.16 225.16-14.44Q225.28-12.72 225.28-10.92L225.28-10.92L225.28 0L222.04 0L222.04-1.96Q220.88-0.84 219.08-0.18Q217.28 0.48 215.48 0.48L215.48 0.48Q213.76 0.48 212.44-0.12Q211.12-0.72 210.24-1.68Q209.36-2.64 208.92-3.84Q208.48-5.04 208.48-6.28L208.48-6.28Q208.48-7.56 208.96-8.84Q209.44-10.12 210.40-11.14Q211.36-12.16 212.76-12.80Q214.16-13.44 215.96-13.44L215.96-13.44Q217.76-13.44 219.38-12.74Q221.00-12.04 222.04-10.76L222.04-10.76L222.04-12.48Q222.04-15.76 221.06-17.36Q220.08-18.96 217.48-18.96L217.48-18.96Q216.36-18.96 215.52-18.68Q214.68-18.40 214.02-17.90Q213.36-17.40 212.80-16.66Q212.24-15.92 211.68-15L211.68-15L209.60-17.08Q210.16-17.68 210.78-18.28Q211.40-18.88 212.30-19.36Q213.20-19.84 214.44-20.14Q215.68-20.44 217.44-20.44ZM222.04-4.84L222.04-7.92Q221.84-8.40 221.46-9.04Q221.08-9.68 220.48-10.28Q219.88-10.88 219.04-11.30Q218.20-11.72 217.04-11.72L217.04-11.72Q215.88-11.72 214.92-11.26Q213.96-10.80 213.30-10.06Q212.64-9.32 212.28-8.32Q211.92-7.32 211.92-6.24L211.92-6.24Q211.92-4.96 212.38-4.02Q212.84-3.08 213.56-2.42Q214.28-1.76 215.16-1.44Q216.04-1.12 216.84-1.12L216.84-1.12Q217.60-1.12 218.38-1.40Q219.16-1.68 219.86-2.18Q220.56-2.68 221.12-3.36Q221.68-4.04 222.04-4.84L222.04-4.84Z M239.60-4.68L239.44-4.68L232.52-20L228.88-20L237.84-0.24L235.72 4.96Q235.36 5.88 234.78 6.44Q234.20 7 233.44 7L233.44 7Q232.72 7 232.06 6.58Q231.40 6.16 231.04 5.36L231.04 5.36L229.28 8.68Q230.04 9.36 230.96 9.68Q231.88 10 232.68 10L232.68 10Q233.80 10 234.64 9.44Q235.48 8.88 236.12 7.98Q236.76 7.08 237.24 5.98Q237.72 4.88 238.16 3.80L238.16 3.80L247.84-20L245.88-20L239.60-4.68Z"/></g>
</svg>
</g><g opacity="1" transform="rotate(0 230.9539 146.5273)">
<svg width="2" height="122.4" x="230.9539" y="146.5273" version="1.1" preserveAspectRatio="none" viewBox="0 0 2 122.4">
  <defs><rect x="0" y="0" width="2" height="122.4" rx="0px" ry="0px" id="id-tBXipXk0b1702171248916"></rect></defs><use class="companyName shapeStroke-str" style="stroke-width:0;" xlink:href="#id-tBXipXk0b1702171248916"></use>
</svg>
</g></svg></svg>