<svg version="1.1" preserveAspectRatio="none" xmlns="http://www.w3.org/2000/svg" width="500" height="500" viewBox="0 0 500 500"><rect width="100%" height="100%" fill="#BEFFA8" fill-opacity="1"/><svg viewBox="331.8909 292.1758 399.1289 94" width="333" height="78.42579176802282" x="83.5px" y="210.7871px" xmlns="http://www.w3.org/2000/svg" xmlns:xlink="http://www.w3.org/1999/xlink" preserveAspectRatio="none"><defs></defs><style>.companyName {fill:#FF4000;fill-opacity:1;}.icon3-floo {flood-color:#FFBABA;flood-opacity:1;}.icon3-str {stroke:#FFBABA;stroke-opacity:1;}.text {fill:#FF4000;fill-opacity:1;}</style><defs>
      <filter
        x="331.8909"
        y="292.1758"
        width="399.1289"
        height="60"
        id="LwNMZKse4"
        filterUnits="userSpaceOnUse"
        primitiveUnits="userSpaceOnUse"
        color-interpolation-filters="sRGB">
        <feMerge><feMergeNode in="SourceGraphic" /></feMerge>
      </filter></defs><g opacity="1" transform="rotate(0 402.8203 368.1758)">
<svg width="257.2701" height="18" x="402.8203" y="368.1758" version="1.1" preserveAspectRatio="none" viewBox="4.2 -30.28 547.3199999999999 38.28">
  <g transform="matrix(1 0 0 1 0 0)" class="text"><path id="id-6izo4zJp24" d="M4.20 0L4.20-28L8.20-28L8.20 0L4.20 0Z M28.56-21.40Q32.60-21.40 34.98-19.06Q37.36-16.72 37.36-12.20L37.36-12.20L37.36 0L33.52 0L33.52-11.76Q33.52-14.84 32.04-16.40Q30.56-17.96 27.80-17.96L27.80-17.96Q24.68-17.96 22.88-16.14Q21.08-14.32 21.08-10.92L21.08-10.92L21.08 0L17.24 0L17.24-21.20L20.92-21.20L20.92-18Q22.08-19.64 24.06-20.52Q26.04-21.40 28.56-21.40L28.56-21.40Z M57.00-21.40Q61.04-21.40 63.42-19.06Q65.80-16.72 65.80-12.20L65.80-12.20L65.80 0L61.96 0L61.96-11.76Q61.96-14.84 60.48-16.40Q59.00-17.96 56.24-17.96L56.24-17.96Q53.12-17.96 51.32-16.14Q49.52-14.32 49.52-10.92L49.52-10.92L49.52 0L45.68 0L45.68-21.20L49.36-21.20L49.36-18Q50.52-19.64 52.50-20.52Q54.48-21.40 57.00-21.40L57.00-21.40Z M83.32 0.24Q80.16 0.24 77.64-1.16Q75.12-2.56 73.70-5.02Q72.28-7.48 72.28-10.60L72.28-10.60Q72.28-13.72 73.70-16.18Q75.12-18.64 77.64-20.02Q80.16-21.40 83.32-21.40L83.32-21.40Q86.48-21.40 88.98-20.02Q91.48-18.64 92.90-16.18Q94.32-13.72 94.32-10.60L94.32-10.60Q94.32-7.48 92.90-5.02Q91.48-2.56 88.98-1.16Q86.48 0.24 83.32 0.24L83.32 0.24ZM83.32-3.12Q85.36-3.12 86.98-4.06Q88.60-5 89.52-6.70Q90.44-8.40 90.44-10.60L90.44-10.60Q90.44-12.80 89.52-14.50Q88.60-16.20 86.98-17.12Q85.36-18.04 83.32-18.04L83.32-18.04Q81.28-18.04 79.66-17.12Q78.04-16.20 77.10-14.50Q76.16-12.80 76.16-10.60L76.16-10.60Q76.16-8.40 77.10-6.70Q78.04-5 79.66-4.06Q81.28-3.12 83.32-3.12L83.32-3.12Z M115.24-21.20L119.00-21.20L109.72 0L105.80 0L96.52-21.20L100.52-21.20L107.80-4.20L115.24-21.20Z M130.84-21.40Q135.24-21.40 137.58-19.24Q139.92-17.08 139.92-12.80L139.92-12.80L139.92 0L136.28 0L136.28-2.80Q135.32-1.32 133.54-0.54Q131.76 0.24 129.32 0.24L129.32 0.24Q125.76 0.24 123.62-1.48Q121.48-3.20 121.48-6L121.48-6Q121.48-8.80 123.52-10.50Q125.56-12.20 130.00-12.20L130.00-12.20L136.08-12.20L136.08-12.96Q136.08-15.44 134.64-16.76Q133.20-18.08 130.40-18.08L130.40-18.08Q128.52-18.08 126.72-17.46Q124.92-16.84 123.68-15.80L123.68-15.80L122.08-18.68Q123.72-20 126.00-20.70Q128.28-21.40 130.84-21.40L130.84-21.40ZM129.96-2.72Q132.16-2.72 133.76-3.70Q135.36-4.68 136.08-6.48L136.08-6.48L136.08-9.44L130.16-9.44Q125.28-9.44 125.28-6.16L125.28-6.16Q125.28-4.56 126.52-3.64Q127.76-2.72 129.96-2.72L129.96-2.72Z M158.96-4L160.16-1.24Q159.32-0.52 158.08-0.14Q156.84 0.24 155.52 0.24L155.52 0.24Q152.32 0.24 150.56-1.48Q148.80-3.20 148.80-6.40L148.80-6.40L148.80-18.04L145.20-18.04L145.20-21.20L148.80-21.20L148.80-25.84L152.64-25.84L152.64-21.20L158.72-21.20L158.72-18.04L152.64-18.04L152.64-6.56Q152.64-4.84 153.50-3.92Q154.36-3 155.96-3L155.96-3Q157.72-3 158.96-4L158.96-4Z M166 0L166-21.20L169.84-21.20L169.84 0L166 0ZM167.92-25.28Q166.80-25.28 166.06-26Q165.32-26.72 165.32-27.76L165.32-27.76Q165.32-28.80 166.06-29.54Q166.80-30.28 167.92-30.28L167.92-30.28Q169.04-30.28 169.78-29.58Q170.52-28.88 170.52-27.84L170.52-27.84Q170.52-26.76 169.78-26.02Q169.04-25.28 167.92-25.28L167.92-25.28Z M189.68-21.40Q193.72-21.40 196.10-19.06Q198.48-16.72 198.48-12.20L198.48-12.20L198.48 0L194.64 0L194.64-11.76Q194.64-14.84 193.16-16.40Q191.68-17.96 188.92-17.96L188.92-17.96Q185.80-17.96 184-16.14Q182.20-14.32 182.20-10.92L182.20-10.92L182.20 0L178.36 0L178.36-21.20L182.04-21.20L182.04-18Q183.20-19.64 185.18-20.52Q187.16-21.40 189.68-21.40L189.68-21.40Z M223.56-21.20L227.20-21.20L227.20-2.88Q227.20 2.68 224.44 5.34Q221.68 8 216.20 8L216.20 8Q213.20 8 210.48 7.18Q207.76 6.36 206.08 4.84L206.08 4.84L207.92 1.88Q209.40 3.16 211.58 3.90Q213.76 4.64 216.08 4.64L216.08 4.64Q219.80 4.64 221.58 2.88Q223.36 1.12 223.36-2.48L223.36-2.48L223.36-4.16Q222-2.52 220.02-1.70Q218.04-0.88 215.72-0.88L215.72-0.88Q212.68-0.88 210.22-2.18Q207.76-3.48 206.36-5.82Q204.96-8.16 204.96-11.16L204.96-11.16Q204.96-14.16 206.36-16.50Q207.76-18.84 210.22-20.12Q212.68-21.40 215.72-21.40L215.72-21.40Q218.12-21.40 220.18-20.52Q222.24-19.64 223.56-17.92L223.56-17.92L223.56-21.20ZM216.16-4.24Q218.24-4.24 219.90-5.12Q221.56-6 222.50-7.58Q223.44-9.16 223.44-11.16L223.44-11.16Q223.44-14.24 221.40-16.14Q219.36-18.04 216.16-18.04L216.16-18.04Q212.92-18.04 210.88-16.14Q208.84-14.24 208.84-11.16L208.84-11.16Q208.84-9.16 209.78-7.58Q210.72-6 212.38-5.12Q214.04-4.24 216.16-4.24L216.16-4.24Z M284.00-28L287.80-28L278.44 0L274.24 0L266.60-22.36L258.96 0L254.68 0L245.32-28L249.44-28L257.00-5.24L264.88-28L268.56-28L276.28-5.12L284.00-28Z M310.88-10.48Q310.88-10.04 310.80-9.32L310.80-9.32L293.60-9.32Q293.96-6.52 296.06-4.82Q298.16-3.12 301.28-3.12L301.28-3.12Q305.08-3.12 307.40-5.68L307.40-5.68L309.52-3.20Q308.08-1.52 305.94-0.64Q303.80 0.24 301.16 0.24L301.16 0.24Q297.80 0.24 295.20-1.14Q292.60-2.52 291.18-5Q289.76-7.48 289.76-10.60L289.76-10.60Q289.76-13.68 291.14-16.16Q292.52-18.64 294.94-20.02Q297.36-21.40 300.40-21.40L300.40-21.40Q303.44-21.40 305.82-20.02Q308.20-18.64 309.54-16.16Q310.88-13.68 310.88-10.48L310.88-10.48ZM300.40-18.16Q297.64-18.16 295.78-16.48Q293.92-14.80 293.60-12.08L293.60-12.08L307.20-12.08Q306.88-14.76 305.02-16.46Q303.16-18.16 300.40-18.16L300.40-18.16Z M328.64-21.40Q331.72-21.40 334.16-20.04Q336.60-18.68 337.98-16.24Q339.36-13.80 339.36-10.60L339.36-10.60Q339.36-7.40 337.98-4.94Q336.60-2.48 334.16-1.12Q331.72 0.24 328.64 0.24L328.64 0.24Q326.28 0.24 324.32-0.68Q322.36-1.60 321.08-3.36L321.08-3.36L321.08 0L317.40 0L317.40-29.68L321.24-29.68L321.24-18Q322.52-19.68 324.44-20.54Q326.36-21.40 328.64-21.40L328.64-21.40ZM328.32-3.12Q330.36-3.12 331.98-4.06Q333.60-5 334.54-6.70Q335.48-8.40 335.48-10.60L335.48-10.60Q335.48-12.80 334.54-14.50Q333.60-16.20 331.98-17.12Q330.36-18.04 328.32-18.04L328.32-18.04Q326.32-18.04 324.68-17.12Q323.04-16.20 322.12-14.50Q321.20-12.80 321.20-10.60L321.20-10.60Q321.20-8.40 322.12-6.70Q323.04-5 324.68-4.06Q326.32-3.12 328.32-3.12L328.32-3.12Z M366.56 0.32Q363.40 0.32 360.46-0.66Q357.52-1.64 355.84-3.20L355.84-3.20L357.32-6.32Q358.92-4.88 361.42-3.98Q363.92-3.08 366.56-3.08L366.56-3.08Q370.04-3.08 371.76-4.26Q373.48-5.44 373.48-7.40L373.48-7.40Q373.48-8.84 372.54-9.74Q371.60-10.64 370.22-11.12Q368.84-11.60 366.32-12.20L366.32-12.20Q363.16-12.96 361.22-13.72Q359.28-14.48 357.90-16.06Q356.52-17.64 356.52-20.32L356.52-20.32Q356.52-22.56 357.70-24.36Q358.88-26.16 361.28-27.24Q363.68-28.32 367.24-28.32L367.24-28.32Q369.72-28.32 372.12-27.68Q374.52-27.04 376.24-25.84L376.24-25.84L374.92-22.64Q373.16-23.76 371.16-24.34Q369.16-24.92 367.24-24.92L367.24-24.92Q363.84-24.92 362.14-23.68Q360.44-22.44 360.44-20.48L360.44-20.48Q360.44-19.04 361.40-18.14Q362.36-17.24 363.78-16.74Q365.20-16.24 367.64-15.68L367.64-15.68Q370.80-14.92 372.72-14.16Q374.64-13.40 376.02-11.84Q377.40-10.28 377.40-7.64L377.40-7.64Q377.40-5.44 376.20-3.62Q375.00-1.80 372.56-0.74Q370.12 0.32 366.56 0.32L366.56 0.32Z M392.96 0.24Q389.80 0.24 387.28-1.16Q384.76-2.56 383.34-5.02Q381.92-7.48 381.92-10.60L381.92-10.60Q381.92-13.72 383.34-16.18Q384.76-18.64 387.28-20.02Q389.80-21.40 392.96-21.40L392.96-21.40Q396.12-21.40 398.62-20.02Q401.12-18.64 402.54-16.18Q403.96-13.72 403.96-10.60L403.96-10.60Q403.96-7.48 402.54-5.02Q401.12-2.56 398.62-1.16Q396.12 0.24 392.96 0.24L392.96 0.24ZM392.96-3.12Q395.00-3.12 396.62-4.06Q398.24-5 399.16-6.70Q400.08-8.40 400.08-10.60L400.08-10.60Q400.08-12.80 399.16-14.50Q398.24-16.20 396.62-17.12Q395.00-18.04 392.96-18.04L392.96-18.04Q390.92-18.04 389.30-17.12Q387.68-16.20 386.74-14.50Q385.80-12.80 385.80-10.60L385.80-10.60Q385.80-8.40 386.74-6.70Q387.68-5 389.30-4.06Q390.92-3.12 392.96-3.12L392.96-3.12Z M410.48 0L410.48-29.68L414.32-29.68L414.32 0L410.48 0Z M438.76-21.20L442.60-21.20L442.60 0L438.96 0L438.96-3.20Q437.80-1.56 435.90-0.66Q434.00 0.24 431.76 0.24L431.76 0.24Q427.52 0.24 425.08-2.10Q422.64-4.44 422.64-9L422.64-9L422.64-21.20L426.48-21.20L426.48-9.44Q426.48-6.36 427.96-4.78Q429.44-3.20 432.20-3.20L432.20-3.20Q435.24-3.20 437.00-5.04Q438.76-6.88 438.76-10.24L438.76-10.24L438.76-21.20Z M461.84-4L463.04-1.24Q462.20-0.52 460.96-0.14Q459.72 0.24 458.40 0.24L458.40 0.24Q455.20 0.24 453.44-1.48Q451.68-3.20 451.68-6.40L451.68-6.40L451.68-18.04L448.08-18.04L448.08-21.20L451.68-21.20L451.68-25.84L455.52-25.84L455.52-21.20L461.60-21.20L461.60-18.04L455.52-18.04L455.52-6.56Q455.52-4.84 456.38-3.92Q457.24-3 458.84-3L458.84-3Q460.60-3 461.84-4L461.84-4Z M468.88 0L468.88-21.20L472.72-21.20L472.72 0L468.88 0ZM470.80-25.28Q469.68-25.28 468.94-26Q468.20-26.72 468.20-27.76L468.20-27.76Q468.20-28.80 468.94-29.54Q469.68-30.28 470.80-30.28L470.80-30.28Q471.92-30.28 472.66-29.58Q473.40-28.88 473.40-27.84L473.40-27.84Q473.40-26.76 472.66-26.02Q471.92-25.28 470.80-25.28L470.80-25.28Z M490.32 0.24Q487.16 0.24 484.64-1.16Q482.12-2.56 480.70-5.02Q479.28-7.48 479.28-10.60L479.28-10.60Q479.28-13.72 480.70-16.18Q482.12-18.64 484.64-20.02Q487.16-21.40 490.32-21.40L490.32-21.40Q493.48-21.40 495.98-20.02Q498.48-18.64 499.90-16.18Q501.32-13.72 501.32-10.60L501.32-10.60Q501.32-7.48 499.90-5.02Q498.48-2.56 495.98-1.16Q493.48 0.24 490.32 0.24L490.32 0.24ZM490.32-3.12Q492.36-3.12 493.98-4.06Q495.60-5 496.52-6.70Q497.44-8.40 497.44-10.60L497.44-10.60Q497.44-12.80 496.52-14.50Q495.60-16.20 493.98-17.12Q492.36-18.04 490.32-18.04L490.32-18.04Q488.28-18.04 486.66-17.12Q485.04-16.20 484.10-14.50Q483.16-12.80 483.16-10.60L483.16-10.60Q483.16-8.40 484.10-6.70Q485.04-5 486.66-4.06Q488.28-3.12 490.32-3.12L490.32-3.12Z M519.16-21.40Q523.20-21.40 525.58-19.06Q527.96-16.72 527.96-12.20L527.96-12.20L527.96 0L524.12 0L524.12-11.76Q524.12-14.84 522.64-16.40Q521.16-17.96 518.40-17.96L518.40-17.96Q515.28-17.96 513.48-16.14Q511.68-14.32 511.68-10.92L511.68-10.92L511.68 0L507.84 0L507.84-21.20L511.52-21.20L511.52-18Q512.68-19.64 514.66-20.52Q516.64-21.40 519.16-21.40L519.16-21.40Z M542.36 0.24Q539.76 0.24 537.36-0.46Q534.96-1.16 533.60-2.24L533.60-2.24L535.20-5.28Q536.60-4.28 538.60-3.68Q540.60-3.08 542.64-3.08L542.64-3.08Q547.68-3.08 547.68-5.96L547.68-5.96Q547.68-6.92 547.00-7.48Q546.32-8.04 545.30-8.30Q544.28-8.56 542.40-8.88L542.40-8.88Q539.84-9.28 538.22-9.80Q536.60-10.32 535.44-11.56Q534.28-12.80 534.28-15.04L534.28-15.04Q534.28-17.92 536.68-19.66Q539.08-21.40 543.12-21.40L543.12-21.40Q545.24-21.40 547.36-20.88Q549.48-20.36 550.84-19.48L550.84-19.48L549.20-16.44Q546.60-18.12 543.08-18.12L543.08-18.12Q540.64-18.12 539.36-17.32Q538.08-16.52 538.08-15.20L538.08-15.20Q538.08-14.16 538.80-13.56Q539.52-12.96 540.58-12.68Q541.64-12.40 543.56-12.04L543.56-12.04Q546.12-11.60 547.70-11.10Q549.28-10.60 550.40-9.40Q551.52-8.20 551.52-6.04L551.52-6.04Q551.52-3.16 549.06-1.46Q546.60 0.24 542.36 0.24L542.36 0.24Z"/></g>
</svg>
</g><g opacity="1" transform="rotate(0 331.8909 292.1758)">
<svg width="399.1289" height="60" x="331.8909" y="292.1758" version="1.1" preserveAspectRatio="none" viewBox="0.8984 -28.5549 234.5345 35.2569">
  <g transform="matrix(1 0 0 1 0 0)" class="companyName"><path id="id-D6z1nYkh12" d="M21.50-23.46L21.50-23.46Q21.05-23.46 21.05-23.89L21.05-23.89Q21.05-24.14 21.35-24.30L21.35-24.30L29.51-28.22Q30.02-28.42 30.17-28.07Q30.31-27.71 29.88-27.42L29.88-27.42Q28.54-26.37 28.14-24.57Q27.75-22.77 27.75-20.33L27.75-20.33L27.75-6.82Q27.75-2.70 30.86-4.18L30.86-4.18Q31.39-4.47 31.56-4.11Q31.74-3.75 31.41-3.50L31.41-3.50L27.32 0.21Q26.93 0.49 26.43 0.35L26.43 0.35Q23.50-0.49 22.99-4.00L22.99-4.00Q22.95-4.18 22.77-4.26L22.77-4.26Q22.60-4.32 22.46-4.18L22.46-4.18Q21.99-3.71 21.47-3.13Q20.96-2.54 18.90-0.84Q16.84 0.86 15.19 0.48Q13.54 0.10 12.54-0.72L12.54-0.72Q10.98-1.99 9.67-3.20Q8.36-4.41 6.43-3.93L6.43-3.93Q6.23-3.87 5.80-3.71Q5.37-3.55 5.20-3.93Q5.02-4.30 5.78-4.75L5.78-4.75Q7.30-5.76 8.77-6.87Q10.23-7.97 11.50-9.32L11.50-9.32Q13.22-11.13 14.25-13.63Q15.27-16.13 14.77-19.04L14.77-19.04Q14.28-21.84 11.99-23.85Q9.71-25.86 6.54-25.39L6.54-25.39Q4.49-25.08 3.54-23.70Q2.58-22.32 2.44-21.07L2.44-21.07Q2.23-19.32 3.24-18.33Q4.26-17.34 5.61-17.15L5.61-17.15Q8.75-16.58 9.82-14.46Q10.90-12.34 8.24-9.96L8.24-9.96Q7.89-9.67 7.62-9.87Q7.34-10.08 7.56-10.47L7.56-10.47Q8.40-12.21 6.27-12.81L6.27-12.81Q3.98-13.46 2.44-15.04Q0.90-16.62 0.90-19.32L0.90-19.32Q0.90-23.07 3.85-25.77Q6.80-28.48 10.59-28.50L10.59-28.50Q15-28.50 17.31-25.86Q19.63-23.22 19.67-19.88L19.67-19.88Q19.71-16.00 17.02-13.05Q14.34-10.10 11.82-8.11L11.82-8.11Q11.66-8.01 11.70-7.81L11.70-7.81Q11.72-7.64 11.89-7.58L11.89-7.58Q13.24-7.01 14.32-6.22Q15.39-5.43 16.13-4.67L16.13-4.67Q17.34-3.40 18.43-3.21Q19.51-3.03 21.21-4.26L21.21-4.26Q21.64-4.57 22.01-4.97Q22.38-5.37 22.75-5.84L22.75-5.84Q22.83-5.94 22.83-6.05L22.83-6.05Q22.75-9.80 22.77-13.58Q22.79-17.36 22.79-21.15L22.79-21.15Q22.79-21.89 22.62-22.68Q22.44-23.46 21.50-23.46Z M33.65-25.57L33.65-25.57Q33.42-25.96 33.70-26.15Q33.98-26.35 34.28-26.02L34.28-26.02Q35.20-24.82 35.70-23.63L35.70-23.63Q35.78-23.42 35.96-23.38Q36.13-23.34 36.27-23.57L36.27-23.57Q38.40-27.05 43.28-27.56L43.28-27.56Q43.71-27.58 43.75-27.21Q43.79-26.84 43.30-26.80L43.30-26.80Q41.31-26.70 40.49-25.72Q39.67-24.75 39.69-21.86L39.69-21.86L39.75-16.80Q39.75-16.56 39.88-16.49Q40.02-16.43 40.21-16.52L40.21-16.52Q41.43-17.17 42.67-17.95Q43.91-18.73 44.96-19.73L44.96-19.73Q45.66-20.47 45.80-19.47L45.80-19.47Q45.86-18.75 46.41-18.18Q46.95-17.62 47.38-17.07L47.38-17.07Q49.63-14.16 49.47-10.84L49.47-10.84Q49.28-7.46 47.25-5.39L47.25-5.39Q46.41-4.51 45.38-3.70Q44.36-2.89 43.63-2.01L43.63-2.01L43.61-2.05Q42.44-0.53 41.86 0.68L41.86 0.68Q41.58 1.25 41.15 0.68L41.15 0.68Q39.00-1.97 34.61-3.34L34.61-3.34Q34.18-3.48 34.20-3.68Q34.22-3.89 34.51-3.96L34.51-3.96Q35.76-4.39 35.74-6.56L35.74-6.56L35.70-18.40Q35.68-21.05 35.11-22.72Q34.53-24.39 33.65-25.57ZM39.75-15.47L39.75-15.47L39.82-5.53Q39.82-5.25 40.04-5.12L40.04-5.12L43.05-3.32Q43.54-3.07 43.87-3.40L43.87-3.40L44.20-3.77Q44.24-3.77 44.24-3.81L44.24-3.81Q45.82-6.09 45.82-9.51L45.82-9.51Q45.80-11.45 45.01-13.04Q44.22-14.63 42.93-16.09L42.93-16.09Q42.09-17.01 39.90-15.74L39.90-15.74Q39.75-15.64 39.75-15.47Z M60.76-2.75L60.76-2.75Q59.77-1.99 58.57-1.08Q57.38-0.18 56.37 0.59L56.37 0.59Q56.02 0.86 55.81 0.82Q55.61 0.78 55.64 0.47L55.64 0.47Q55.64 0.06 54.43-1.09L54.43-1.09Q51.25-4.08 51.37-8.87L51.37-8.87Q51.48-12.97 55.18-15.80L55.18-15.80Q56.31-16.66 57.29-17.62Q58.28-18.57 59.04-19.94L59.04-19.94Q59.36-20.55 59.90-19.98L59.90-19.98Q62.87-16.62 65.84-16.02L65.84-16.02Q66.78-15.84 66.04-15.27L66.04-15.27Q65.12-14.61 65.04-13.63L65.04-13.63L65.04-13.59L65.10-4.67Q65.10-3.77 65.75-3.44Q66.41-3.11 67.17-3.95L67.17-3.95Q67.46-4.28 67.72-4.11Q67.99-3.95 67.73-3.52L67.73-3.52Q67.03-2.46 66.38-1.45Q65.72-0.43 65.27 0.66L65.27 0.66L65.25 0.68Q64.98 1.13 64.59 0.68L64.59 0.68Q64.38 0.45 64.08 0.37L64.08 0.37Q61.86-0.12 61.27-2.58L61.27-2.58Q61.23-2.70 61.07-2.81L61.07-2.81Q60.90-2.83 60.76-2.75ZM60.98-14.26L60.98-14.26Q59.77-14.59 58.14-16.13L58.14-16.13Q57.36-17.07 56.89-16.31L56.89-16.31Q54.82-13.22 55.27-9.49L55.27-9.49Q55.90-4.16 59.02-2.91L59.02-2.91Q59.04-2.91 59.06-2.89L59.06-2.89Q59.86-2.64 61.00-3.85L61.00-3.85Q61.07-3.96 61.07-4.06L61.07-4.06Q61.05-4.36 61.05-4.98L61.05-4.98L61.23-13.95Q61.23-14.18 60.98-14.26Z M76.33-24.20L76.33-24.20Q79.06-24.92 81.35-23.87L81.35-23.87Q82.89-23.13 83.75-21.82Q84.61-20.51 84.43-18.89Q84.26-17.27 83.37-16.48Q82.48-15.70 81.91-15.27Q81.35-14.84 80.84-14.38L80.84-14.38Q79.84-13.44 80.68-12.70L80.68-12.70Q83.32-10.41 83.72-8.85Q84.12-7.29 83.16-6.09L83.16-6.09Q81.84-4.45 80.34-2.98Q78.85-1.50 77.38 0L77.38 0Q76.66 0.70 76.50-0.08L76.50-0.08Q76.25-1.15 74.21-1.96Q72.17-2.77 69.90-3.52L69.90-3.52Q69.49-3.67 69.84-4.10L69.84-4.10Q70.37-4.65 70.94-5.20Q71.50-5.74 72.07-6.27L72.07-6.27Q72.95-7.09 72.67-7.72Q72.38-8.36 71.62-9.16L71.62-9.16Q69.71-11.15 69.78-12.89Q69.84-14.63 71.04-15.96L71.04-15.96Q72.15-17.19 73.54-18.21Q74.94-19.24 76.19-20.51L76.19-20.51Q76.35-20.64 76.60-20.41L76.60-20.41Q79.22-18.09 80.97-18.07Q82.71-18.05 83.24-19.10L83.24-19.10Q83.77-20.18 83.14-21.34Q82.52-22.50 81.11-23.26L81.11-23.26Q78.98-24.32 76.45-23.46L76.45-23.46Q75.94-23.26 75.84-23.67Q75.74-24.08 76.33-24.20ZM75.96-9.47L73.20-6.66Q73.01-6.33 73.32-6.15L73.32-6.15Q74.71-5.51 76.09-4.88Q77.48-4.26 78.89-3.67L78.89-3.67Q79.86-3.24 80.84-4.79L80.84-4.79Q82.05-6.72 77.64-9.86L77.64-9.86Q76.95-10.27 75.96-9.47L75.96-9.47ZM75.90-10.72L75.90-10.72Q76.13-10.55 76.33-10.74L76.33-10.74L79.96-14.30Q80.14-14.49 80.07-14.66Q80-14.82 79.77-14.84L79.77-14.84Q78.65-14.96 77.30-15.70L77.30-15.70Q75.14-16.93 74.47-17.36Q73.81-17.79 72.77-16.58L72.77-16.58Q71.46-15.04 72.76-13.63Q74.06-12.23 75.90-10.72Z M95.88-2.75L95.88-2.75Q94.88-1.99 93.69-1.08Q92.50-0.18 91.48 0.59L91.48 0.59Q91.13 0.86 90.93 0.82Q90.72 0.78 90.76 0.47L90.76 0.47Q90.76 0.06 89.55-1.09L89.55-1.09Q86.37-4.08 86.48-8.87L86.48-8.87Q86.60-12.97 90.29-15.80L90.29-15.80Q91.43-16.66 92.41-17.62Q93.40-18.57 94.16-19.94L94.16-19.94Q94.47-20.55 95.02-19.98L95.02-19.98Q97.99-16.62 100.96-16.02L100.96-16.02Q101.89-15.84 101.15-15.27L101.15-15.27Q100.23-14.61 100.16-13.63L100.16-13.63L100.16-13.59L100.21-4.67Q100.21-3.77 100.87-3.44Q101.52-3.11 102.29-3.95L102.29-3.95Q102.58-4.28 102.84-4.11Q103.11-3.95 102.85-3.52L102.85-3.52Q102.15-2.46 101.49-1.45Q100.84-0.43 100.39 0.66L100.39 0.66L100.37 0.68Q100.10 1.13 99.71 0.68L99.71 0.68Q99.49 0.45 99.20 0.37L99.20 0.37Q96.97-0.12 96.39-2.58L96.39-2.58Q96.35-2.70 96.19-2.81L96.19-2.81Q96.02-2.83 95.88-2.75ZM96.09-14.26L96.09-14.26Q94.88-14.59 93.26-16.13L93.26-16.13Q92.48-17.07 92.01-16.31L92.01-16.31Q89.94-13.22 90.39-9.49L90.39-9.49Q91.02-4.16 94.14-2.91L94.14-2.91Q94.16-2.91 94.18-2.89L94.18-2.89Q94.98-2.64 96.11-3.85L96.11-3.85Q96.19-3.96 96.19-4.06L96.19-4.06Q96.17-4.36 96.17-4.98L96.17-4.98L96.35-13.95Q96.35-14.18 96.09-14.26Z M111.99-17.15L111.99-17.15Q113.16-17.79 114.37-18.54Q115.57-19.30 116.58-20.27L116.58-20.27Q117.27-21.00 117.40-20.02L117.40-20.02Q117.46-19.30 118.01-18.73Q118.55-18.16 119.00-17.62L119.00-17.62Q121.62-14.30 121.72-10.35L121.72-10.35Q121.84-4.61 117.67-0.21Q113.50 4.20 110.06 6.52L110.06 6.52Q109.59 6.84 109.38 6.60Q109.18 6.37 109.49 6.11L109.49 6.11Q112.25 3.67 115.06 0.78Q117.87-2.11 117.60-8.38L117.60-8.38Q117.48-10.84 116.84-13.02Q116.19-15.20 114.53-16.64L114.53-16.64Q113.59-17.40 111.82-16.39L111.82-16.39Q111.68-16.29 111.68-16.09L111.68-16.09Q111.70-12.32 111.73-9.74Q111.76-7.15 111.78-4.53L111.78-4.53Q111.84-2.73 113.07-3.22L113.07-3.22L113.95-3.91Q114.28-4.16 114.53-3.95Q114.79-3.73 114.49-3.46L114.49-3.46Q113.50-2.46 112.57-1.51Q111.64-0.57 111.07 0.47L111.07 0.47Q110.86 0.92 110.35 0.47L110.35 0.47Q109.41-0.61 108.94-1.04Q108.46-1.46 106.58-2.34L106.58-2.34Q106.19-2.48 106.20-2.70Q106.21-2.91 106.46-2.99L106.46-2.99Q107.71-3.42 107.70-5.57L107.70-5.57Q107.70-7.79 107.74-10.07Q107.79-12.34 107.73-14.51L107.73-14.51Q107.70-15.41 107.28-15.88Q106.86-16.35 106.46-16.70L106.46-16.70Q104.71-18.16 105.07-19.94Q105.43-21.72 107.42-23.55L107.42-23.55Q107.77-23.95 108.04-23.73Q108.30-23.52 108.05-23.24L108.05-23.24Q107.17-22.34 107.27-21.49Q107.36-20.64 108.67-20.25L108.67-20.25Q110.20-19.79 110.78-19.06Q111.37-18.34 111.52-17.40L111.52-17.40Q111.54-17.25 111.69-17.16Q111.84-17.07 111.99-17.15Z M126.78-14.98L126.78-14.98L134.41-15.72Q134.57-15.74 134.65-15.61L134.65-15.61Q134.71-15.49 134.65-15.37L134.65-15.37L133.55-13.18Q133.44-13.01 133.32-13.01L133.32-13.01L125.64-12.27Q125.47-12.27 125.43-12.36L125.43-12.36Q125.33-12.48 125.43-12.64L125.43-12.64L126.52-14.80Q126.60-14.94 126.78-14.98ZM125.08-10.66L125.08-10.66L132.73-11.41Q132.87-11.43 132.97-11.31L132.97-11.31Q133.03-11.17 132.97-11.05L132.97-11.05L131.86-8.87Q131.78-8.71 131.62-8.71L131.62-8.71L123.96-7.95Q123.81-7.95 123.75-8.07L123.75-8.07Q123.65-8.16 123.75-8.32L123.75-8.32L124.84-10.51Q124.92-10.66 125.08-10.66Z M145.04-13.89L145.04-13.89Q144.00-13.16 142.03-13.16L142.03-13.16Q139.26-13.22 137.36-15Q135.47-16.78 135.47-19.39L135.47-19.39Q135.47-23.18 138.46-25.86Q141.45-28.54 146.00-28.55L146.00-28.55Q149.86-28.57 153.29-26.74Q156.72-24.90 159.30-23.05L159.30-23.05Q161.09-21.70 162.62-23.05L162.62-23.05Q163.05-23.44 163.36-23.13Q163.67-22.83 163.30-22.48L163.30-22.48L159.94-19.67Q157.70-18.03 154.80-19.94L154.80-19.94Q152.01-21.88 148.94-23.52Q145.86-25.16 143.30-25.16L143.30-25.16Q140.29-25.16 138.51-23.46Q136.72-21.76 136.70-19.59L136.70-19.59Q136.60-14.45 141.88-13.93L141.88-13.93Q143.38-13.75 144.57-14.61L144.57-14.61Q145.02-14.88 145.23-14.53Q145.45-14.18 145.04-13.89ZM136.52-7.66L136.52-7.66Q138.87-9.55 140.53-10.23L140.53-10.23Q142.91-11.25 144.22-9.88L144.22-9.88Q147.85-6.13 150.29-4.42Q152.73-2.71 154.52-2.34Q156.31-1.97 157.68-2.60Q159.04-3.22 160.55-4.14L160.55-4.14Q161.13-4.53 161.39-4.19Q161.64-3.85 161.19-3.48L161.19-3.48Q159.32-1.93 157.25-0.81Q155.18 0.31 152.71 0.34Q150.23 0.37 147.25-1.02Q144.26-2.40 140.55-5.92L140.55-5.92Q139.32-7.11 138.13-7.09L138.13-7.09Q137.48-7.09 136.76-6.74L136.76-6.74Q136.29-6.52 136.12-6.88Q135.96-7.23 136.52-7.66ZM149.82-21.74L149.82-21.74Q148.40-20.63 149.06-19.38Q149.73-18.14 151.91-16.46L151.91-16.46Q155.70-13.54 155.40-10.90Q155.10-8.26 150.06-6.39L150.06-6.39Q149.65-6.21 149.46-6.50Q149.28-6.80 149.65-7.03L149.65-7.03Q151.56-8.26 151.04-9.69Q150.53-11.11 148.11-12.97L148.11-12.97Q145.25-15.10 144.99-17.49Q144.73-19.88 149.32-22.34L149.32-22.34Q149.79-22.60 150.02-22.33Q150.25-22.07 149.82-21.74Z M172.01 0.35L172.01 0.35Q171.72 0.84 171.29 0.35L171.29 0.35Q169.14-2.32 164.77-3.67L164.77-3.67Q164.41-3.77 164.42-3.98Q164.43-4.20 164.65-4.30L164.65-4.30Q165.90-4.73 165.90-6.89L165.90-6.89L165.84-16.86Q165.84-17.07 165.80-17.20Q165.76-17.32 165.83-17.43Q165.90-17.54 166.09-17.56L166.09-17.56Q171.29-17.99 175.33-20.39L175.33-20.39Q175.51-20.49 175.65-20.45Q175.80-20.41 175.82-20.18L175.82-20.18Q176.15-18.07 177.89-16.04L177.89-16.04Q178.85-14.86 179.48-12.83Q180.12-10.80 179.98-9.45L179.98-9.45Q179.79-7.87 178.95-6.61Q178.11-5.35 177.03-4.30L177.03-4.30Q175.76-3.05 174.30-2.19Q172.83-1.33 172.01 0.35ZM169.88-17.11L169.88-17.11L169.96-5.86Q169.96-5.57 170.20-5.45L170.20-5.45L173.65-3.30Q174.16-2.97 174.59-3.50L174.59-3.50Q176.45-5.49 176.27-8.28L176.27-8.28Q176.23-10.02 175.60-11.39Q174.96-12.75 174.02-13.81L174.02-13.81Q172.50-15.35 171.70-17.64L171.70-17.64Q171.66-17.73 171.52-17.80Q171.39-17.87 171.27-17.81L171.27-17.81Q170.68-17.60 170.10-17.44L170.10-17.44Q169.88-17.36 169.88-17.11Z M186.04-27.21L186.04-27.21Q184.49-26.78 184.53-25.39L184.53-25.39Q184.55-24.51 185.54-23.76Q186.52-23.01 187.85-22.75L187.85-22.75Q187.87-22.75 187.89-22.73L187.89-22.73Q191.99-21.21 195.03-18.75Q198.07-16.29 198.48-11.60L198.48-11.60L198.48-11.54Q198.07-8.03 196.78-5.68Q195.49-3.34 193.73-2.11L193.73-2.11L193.71-2.07Q192.89-1.37 191.78-0.82Q190.66-0.27 189.80 0.31L189.80 0.31Q189.26 0.68 189.10 0.31L189.10 0.31Q188.01-2.29 183.07-3.65L183.07-3.65Q182.77-3.71 182.75-3.95Q182.73-4.18 182.97-4.28L182.97-4.28Q184.20-4.75 184.20-6.88L184.20-6.88L184.16-15Q184.16-15.68 184.79-15.64L184.79-15.64Q186.74-15.39 188.69-16.97L188.69-16.97Q188.81-17.05 188.81-17.27L188.81-17.27Q188.77-17.42 188.61-17.50L188.61-17.50Q187.87-17.81 187.13-18.12Q186.39-18.42 185.68-18.77L185.68-18.77Q183.87-19.59 183.00-20.90Q182.13-22.21 181.97-23.50L181.97-23.50L181.97-23.59Q182.46-27.32 185.72-27.75L185.72-27.75Q186.23-27.83 186.28-27.56Q186.33-27.29 186.04-27.21ZM189.84-16.95L189.84-16.95Q189.67-17.03 189.51-16.91L189.51-16.91L188.59-16.19Q188.20-15.90 188.20-15.49L188.20-15.49L188.28-5.84Q188.28-5.55 188.52-5.43L188.52-5.43L192.73-2.95Q193.24-2.64 193.67-3.18L193.67-3.18Q195.43-5.66 195.03-9.78Q194.63-13.89 191.64-16.00L191.64-16.00Q191.09-16.37 189.84-16.95Z M209.59-2.75L209.59-2.75Q208.59-1.99 207.40-1.08Q206.21-0.18 205.20 0.59L205.20 0.59Q204.84 0.86 204.64 0.82Q204.43 0.78 204.47 0.47L204.47 0.47Q204.47 0.06 203.26-1.09L203.26-1.09Q200.08-4.08 200.20-8.87L200.20-8.87Q200.31-12.97 204.00-15.80L204.00-15.80Q205.14-16.66 206.12-17.62Q207.11-18.57 207.87-19.94L207.87-19.94Q208.18-20.55 208.73-19.98L208.73-19.98Q211.70-16.62 214.67-16.02L214.67-16.02Q215.61-15.84 214.86-15.27L214.86-15.27Q213.95-14.61 213.87-13.63L213.87-13.63L213.87-13.59L213.93-4.67Q213.93-3.77 214.58-3.44Q215.23-3.11 216.00-3.95L216.00-3.95Q216.29-4.28 216.55-4.11Q216.82-3.95 216.56-3.52L216.56-3.52Q215.86-2.46 215.21-1.45Q214.55-0.43 214.10 0.66L214.10 0.66L214.08 0.68Q213.81 1.13 213.42 0.68L213.42 0.68Q213.20 0.45 212.91 0.37L212.91 0.37Q210.68-0.12 210.10-2.58L210.10-2.58Q210.06-2.70 209.90-2.81L209.90-2.81Q209.73-2.83 209.59-2.75ZM209.80-14.26L209.80-14.26Q208.59-14.59 206.97-16.13L206.97-16.13Q206.19-17.07 205.72-16.31L205.72-16.31Q203.65-13.22 204.10-9.49L204.10-9.49Q204.73-4.16 207.85-2.91L207.85-2.91Q207.87-2.91 207.89-2.89L207.89-2.89Q208.69-2.64 209.82-3.85L209.82-3.85Q209.90-3.96 209.90-4.06L209.90-4.06Q209.88-4.36 209.88-4.98L209.88-4.98L210.06-13.95Q210.06-14.18 209.80-14.26Z M225.70-17.15L225.70-17.15Q226.88-17.79 228.08-18.54Q229.28-19.30 230.29-20.27L230.29-20.27Q230.98-21.00 231.11-20.02L231.11-20.02Q231.17-19.30 231.72-18.73Q232.27-18.16 232.71-17.62L232.71-17.62Q235.33-14.30 235.43-10.35L235.43-10.35Q235.55-4.61 231.38-0.21Q227.21 4.20 223.77 6.52L223.77 6.52Q223.30 6.84 223.10 6.60Q222.89 6.37 223.20 6.11L223.20 6.11Q225.96 3.67 228.77 0.78Q231.58-2.11 231.31-8.38L231.31-8.38Q231.19-10.84 230.55-13.02Q229.90-15.20 228.24-16.64L228.24-16.64Q227.30-17.40 225.53-16.39L225.53-16.39Q225.39-16.29 225.39-16.09L225.39-16.09Q225.41-12.32 225.44-9.74Q225.47-7.15 225.49-4.53L225.49-4.53Q225.55-2.73 226.78-3.22L226.78-3.22L227.66-3.91Q227.99-4.16 228.24-3.95Q228.50-3.73 228.20-3.46L228.20-3.46Q227.21-2.46 226.28-1.51Q225.35-0.57 224.79 0.47L224.79 0.47Q224.57 0.92 224.06 0.47L224.06 0.47Q223.13-0.61 222.65-1.04Q222.17-1.46 220.29-2.34L220.29-2.34Q219.90-2.48 219.91-2.70Q219.92-2.91 220.18-2.99L220.18-2.99Q221.43-3.42 221.41-5.57L221.41-5.57Q221.41-7.79 221.46-10.07Q221.50-12.34 221.45-14.51L221.45-14.51Q221.41-15.41 220.99-15.88Q220.57-16.35 220.18-16.70L220.18-16.70Q218.42-18.16 218.78-19.94Q219.14-21.72 221.13-23.55L221.13-23.55Q221.48-23.95 221.75-23.73Q222.01-23.52 221.76-23.24L221.76-23.24Q220.88-22.34 220.98-21.49Q221.07-20.64 222.38-20.25L222.38-20.25Q223.91-19.79 224.49-19.06Q225.08-18.34 225.23-17.40L225.23-17.40Q225.25-17.25 225.40-17.16Q225.55-17.07 225.70-17.15Z"/></g>
</svg>
</g></svg></svg>