<svg version="1.1" preserveAspectRatio="none" xmlns="http://www.w3.org/2000/svg" width="500" height="500" viewBox="0 0 500 500"><rect width="100%" height="100%" fill="#2089EF" fill-opacity="1"/><svg viewBox="79.3428 82.7827 378.7655 259.1656" width="333" height="227.85112371638917" x="83.5px" y="136.0744px" xmlns="http://www.w3.org/2000/svg" xmlns:xlink="http://www.w3.org/1999/xlink" preserveAspectRatio="none"><defs></defs><style>.companyName {fill:#D9F18A;fill-opacity:1;}.icon1 {fill:#FFA2E8;fill-opacity:1;}.icon2 {fill:#FFDEAC;fill-opacity:1;}.icon3 {fill:#89EFCA;fill-opacity:1;}.icon3-str {stroke:#89EFCA;stroke-opacity:1;}.text {fill:#D9F18A;fill-opacity:1;}</style><g opacity="1" transform="rotate(0 192.9724 82.7827)">
<svg width="151.5062" height="131.1656" x="192.9724" y="82.7827" version="1.1" preserveAspectRatio="none" viewBox="5 11.041999816894531 90 77.91699981689453">
  <g transform="matrix(1 0 0 1 0 0)" class="icon1"><path d="M57.941,11.346l-0.175-0.304l-15.51,0.009L5,75.56l7.743,13.389l74.536,0.01L95,75.56L57.941,11.346z M13.093,87.123  l-0.817-1.412l30.342-52.555l16.752,29.015h-1.658L42.607,36.003L13.093,87.123z M38.365,71.424h48.809L53.016,12.262l1.816-0.001  l35.056,60.718l-52.421,0.001L38.365,71.424z M86.33,70.936H38.646l0.898-1.555h44.071L50.638,12.263l1.816-0.001L86.33,70.936z   M82.771,68.894H39.825l0.898-1.555l39.335-0.001L48.26,12.265l1.816-0.001L82.771,68.894z M79.214,66.851l-38.21,0.001l0.898-1.556  H76.5l-30.617-53.03l1.815-0.001L79.214,66.851z M75.656,64.809H42.184l0.82-1.42h30.168L43.661,12.268l1.659-0.001L75.656,64.809z   M56.309,62.171H43.706l6.301-10.914L56.309,62.171z M67.007,62.171L42.799,20.241l-0.211-0.365L8.424,79.05l-0.909-1.572  l35.063-60.731l26.227,45.425H67.007z M42.588,20.849l23.858,41.322h-1.797L42.599,23.978L9.614,81.108l-0.909-1.572L42.588,20.849z   M42.599,24.952l21.49,37.22h-1.797L42.609,28.081L10.805,83.166l-0.909-1.572L42.599,24.952z M42.609,29.054L61.73,62.171h-1.799  L42.619,32.183L11.995,85.225l-0.91-1.573L42.609,29.054z M44.651,41.977L20.24,84.262h68.34l-0.906,1.573H17.534l26.219-45.412  L44.651,41.977z M21.082,83.774l23.85-41.31l0.898,1.555L23.787,82.201h65.981l-0.907,1.574H21.082z M24.63,81.713l21.482-37.206  l0.898,1.555L27.335,80.141h63.62l-0.906,1.573H24.63z M28.178,79.654L47.29,46.55l0.898,1.555L30.883,78.081h61.259l-0.906,1.573  H28.178z M31.726,77.594L48.47,48.592l0.836,1.447L34.219,76.169h59.025l-0.821,1.425H31.726z M93.244,74.951H36.328l0.857-1.485  l53.546-0.001L55.393,12.26l1.67-0.001L93.244,74.951z M42.607,12.877l28.456,49.295h-1.698L42.789,16.138l-0.211-0.365  L7.234,76.992L6.406,75.56L42.607,12.877z M86.575,87.741l-72.427-0.009l28.46-49.294l0.864,1.497l-26.57,46.022l-0.21,0.365h70.701  L86.575,87.741z"></path></g>
</svg>
</g><g opacity="1" transform="rotate(0 123.8147 319.9483)">
<svg width="289.8218" height="22" x="123.8147" y="319.9483" version="1.1" preserveAspectRatio="none" viewBox="2.56 -31.6 559.8000000000001 42.480000000000004">
  <g transform="matrix(1 0 0 1 0 0)" class="text"><path id="id-6izo4zJp24" d="M2.56-28.24L8.20-28.24L8.20 0L2.56 0L2.56-28.24Z M28.52-22.48Q32.36-22.48 34.64-19.96Q36.92-17.44 36.92-12.88L36.92-12.88L36.92 0L31.32 0L31.32-12.24Q31.32-14.88 29.96-16.34Q28.60-17.80 26.24-17.80L26.24-17.80Q23.84-17.80 22.40-16.24Q20.96-14.68 20.96-11.76L20.96-11.76L20.96 0L15.32 0L15.32-22.16L20.96-22.16L20.96-17.72Q21.84-19.96 23.86-21.22Q25.88-22.48 28.52-22.48L28.52-22.48Z M57.08-22.48Q60.92-22.48 63.20-19.96Q65.48-17.44 65.48-12.88L65.48-12.88L65.48 0L59.88 0L59.88-12.24Q59.88-14.88 58.52-16.34Q57.16-17.80 54.80-17.80L54.80-17.80Q52.40-17.80 50.96-16.24Q49.52-14.68 49.52-11.76L49.52-11.76L49.52 0L43.88 0L43.88-22.16L49.52-22.16L49.52-17.72Q50.40-19.96 52.42-21.22Q54.44-22.48 57.08-22.48L57.08-22.48Z M82.68-22.44Q85.92-22.44 88.50-21.08Q91.08-19.72 92.56-17.14Q94.04-14.56 94.04-11.08L94.04-11.08Q94.04-7.60 92.56-5.04Q91.08-2.48 88.50-1.10Q85.92 0.28 82.68 0.28L82.68 0.28Q79.44 0.28 76.86-1.10Q74.28-2.48 72.80-5.04Q71.32-7.60 71.32-11.08L71.32-11.08Q71.32-14.56 72.80-17.14Q74.28-19.72 76.86-21.08Q79.44-22.44 82.68-22.44L82.68-22.44ZM82.68-17.56Q80.32-17.56 78.68-15.90Q77.04-14.24 77.04-11.08L77.04-11.08Q77.04-7.92 78.68-6.26Q80.32-4.60 82.68-4.60L82.68-4.60Q85.04-4.60 86.68-6.26Q88.32-7.92 88.32-11.08L88.32-11.08Q88.32-14.24 86.68-15.90Q85.04-17.56 82.68-17.56L82.68-17.56Z M104.04-22.16L109.68-5.64L115.28-22.16L121.28-22.16L113.08 0L106.20 0L98.00-22.16L104.04-22.16Z M135.08-22.44Q137.88-22.44 139.88-21.12Q141.88-19.80 142.72-17.56L142.72-17.56L142.72-22.16L148.32-22.16L148.32 0L142.72 0L142.72-4.64Q141.88-2.40 139.88-1.06Q137.88 0.28 135.08 0.28L135.08 0.28Q132.28 0.28 130.04-1.08Q127.80-2.44 126.54-5.02Q125.28-7.60 125.28-11.08L125.28-11.08Q125.28-14.56 126.54-17.14Q127.80-19.72 130.04-21.08Q132.28-22.44 135.08-22.44L135.08-22.44ZM136.84-17.52Q134.20-17.52 132.60-15.80Q131-14.08 131-11.08L131-11.08Q131-8.08 132.60-6.38Q134.20-4.68 136.84-4.68L136.84-4.68Q139.40-4.68 141.06-6.42Q142.72-8.16 142.72-11.08L142.72-11.08Q142.72-14.04 141.06-15.78Q139.40-17.52 136.84-17.52L136.84-17.52Z M165.08-4.84L167.28-4.84L167.28 0L164.32 0Q160.60 0 158.62-1.80Q156.64-3.60 156.64-7.80L156.64-7.80L156.64-17.40L153.56-17.40L153.56-22.16L156.64-22.16L156.64-27.64L162.28-27.64L162.28-22.16L167.24-22.16L167.24-17.40L162.28-17.40L162.28-7.72Q162.28-6.12 162.92-5.48Q163.56-4.84 165.08-4.84L165.08-4.84Z M172.68-28.52Q172.68-29.88 173.64-30.74Q174.60-31.60 176.16-31.60L176.16-31.60Q177.72-31.60 178.68-30.74Q179.64-29.88 179.64-28.52L179.64-28.52Q179.64-27.20 178.68-26.34Q177.72-25.48 176.16-25.48L176.16-25.48Q174.60-25.48 173.64-26.34Q172.68-27.20 172.68-28.52L172.68-28.52ZM173.32-22.16L178.96-22.16L178.96 0L173.32 0L173.32-22.16Z M199.28-22.48Q203.12-22.48 205.40-19.96Q207.68-17.44 207.68-12.88L207.68-12.88L207.68 0L202.08 0L202.08-12.24Q202.08-14.88 200.72-16.34Q199.36-17.80 197.00-17.80L197.00-17.80Q194.60-17.80 193.16-16.24Q191.72-14.68 191.72-11.76L191.72-11.76L191.72 0L186.08 0L186.08-22.16L191.72-22.16L191.72-17.72Q192.60-19.96 194.62-21.22Q196.64-22.48 199.28-22.48L199.28-22.48Z M223.32-22.44Q226.12-22.44 228.12-21.12Q230.12-19.80 230.96-17.56L230.96-17.56L230.96-22.16L236.56-22.16L236.56 0.08Q236.56 3.16 235.34 5.62Q234.12 8.08 231.70 9.48Q229.28 10.88 225.84 10.88L225.84 10.88Q221.04 10.88 218.08 8.60Q215.12 6.32 214.48 2.40L214.48 2.40L220.04 2.40Q220.52 4.08 221.90 5.02Q223.28 5.96 225.44 5.96L225.44 5.96Q227.92 5.96 229.44 4.50Q230.96 3.04 230.96 0.08L230.96 0.08L230.96-4.64Q230.12-2.40 228.12-1.06Q226.12 0.28 223.32 0.28L223.32 0.28Q220.52 0.28 218.28-1.08Q216.04-2.44 214.78-5.02Q213.52-7.60 213.52-11.08L213.52-11.08Q213.52-14.56 214.78-17.14Q216.04-19.72 218.28-21.08Q220.52-22.44 223.32-22.44L223.32-22.44ZM225.08-17.52Q222.44-17.52 220.84-15.80Q219.24-14.08 219.24-11.08L219.24-11.08Q219.24-8.08 220.84-6.38Q222.44-4.68 225.08-4.68L225.08-4.68Q227.64-4.68 229.30-6.42Q230.96-8.16 230.96-11.08L230.96-11.08Q230.96-14.04 229.30-15.78Q227.64-17.52 225.08-17.52L225.08-17.52Z M285.32-28.24L291.44-28.24L284.52 0L277.56 0L272.28-20.48L266.96 0L260.04 0L253.12-28.24L259.24-28.24L263.56-6.36L269.16-28.24L275.36-28.24L281-6.36L285.32-28.24Z M318.12-11.92Q318.12-11.08 317.92-10L317.92-10L301.68-10Q301.80-7.04 303.28-5.64Q304.76-4.24 306.96-4.24L306.96-4.24Q308.92-4.24 310.22-5.20Q311.52-6.16 311.88-7.80L311.88-7.80L317.84-7.80Q317.40-5.48 315.96-3.64Q314.52-1.80 312.26-0.76Q310 0.28 307.24 0.28L307.24 0.28Q304.00 0.28 301.48-1.10Q298.96-2.48 297.56-5.04Q296.16-7.60 296.16-11.08L296.16-11.08Q296.16-14.56 297.56-17.14Q298.96-19.72 301.48-21.08Q304.00-22.44 307.24-22.44L307.24-22.44Q310.52-22.44 312.98-21.08Q315.44-19.72 316.78-17.34Q318.12-14.96 318.12-11.92L318.12-11.92ZM312.44-12.48Q312.56-15.20 311.02-16.60Q309.48-18 307.24-18L307.24-18Q304.96-18 303.40-16.60Q301.84-15.20 301.68-12.48L301.68-12.48L312.44-12.48Z M337.36-22.44Q340.16-22.44 342.40-21.08Q344.64-19.72 345.90-17.14Q347.16-14.56 347.16-11.08L347.16-11.08Q347.16-7.60 345.90-5.02Q344.64-2.44 342.40-1.08Q340.16 0.28 337.36 0.28L337.36 0.28Q334.56 0.28 332.58-1.06Q330.60-2.40 329.76-4.64L329.76-4.64L329.76 0L324.12 0L324.12-29.60L329.76-29.60L329.76-17.56Q330.60-19.80 332.58-21.12Q334.56-22.44 337.36-22.44L337.36-22.44ZM335.60-17.52Q333.04-17.52 331.38-15.78Q329.72-14.04 329.72-11.08L329.72-11.08Q329.72-8.16 331.38-6.42Q333.04-4.68 335.60-4.68L335.60-4.68Q338.24-4.68 339.84-6.38Q341.44-8.08 341.44-11.08L341.44-11.08Q341.44-14.08 339.84-15.80Q338.24-17.52 335.60-17.52L335.60-17.52Z M383.28-7.72Q383.28-5.56 382.20-3.74Q381.12-1.92 379-0.82Q376.88 0.28 373.84 0.28L373.84 0.28Q370.84 0.28 368.48-0.74Q366.12-1.76 364.70-3.68Q363.28-5.60 363.08-8.16L363.08-8.16L369.08-8.16Q369.28-6.44 370.46-5.30Q371.64-4.16 373.60-4.16L373.60-4.16Q375.36-4.16 376.30-5.10Q377.24-6.04 377.24-7.52L377.24-7.52Q377.24-8.84 376.48-9.70Q375.72-10.56 374.56-11.08Q373.40-11.60 371.36-12.28L371.36-12.28Q368.72-13.16 367.04-14.02Q365.36-14.88 364.18-16.52Q363-18.16 363-20.80L363-20.80Q363-24.44 365.62-26.54Q368.24-28.64 372.56-28.64L372.56-28.64Q377.04-28.64 379.70-26.48Q382.36-24.32 382.72-20.72L382.72-20.72L376.64-20.72Q376.40-22.24 375.36-23.22Q374.32-24.20 372.52-24.20L372.52-24.20Q370.96-24.20 370-23.38Q369.04-22.56 369.04-21L369.04-21Q369.04-19.76 369.78-18.94Q370.52-18.12 371.66-17.60Q372.80-17.08 374.76-16.44L374.76-16.44Q377.48-15.48 379.18-14.64Q380.88-13.80 382.08-12.12Q383.28-10.44 383.28-7.72L383.28-7.72Z M399.68-22.44Q402.92-22.44 405.50-21.08Q408.08-19.72 409.56-17.14Q411.04-14.56 411.04-11.08L411.04-11.08Q411.04-7.60 409.56-5.04Q408.08-2.48 405.50-1.10Q402.92 0.28 399.68 0.28L399.68 0.28Q396.44 0.28 393.86-1.10Q391.28-2.48 389.80-5.04Q388.32-7.60 388.32-11.08L388.32-11.08Q388.32-14.56 389.80-17.14Q391.28-19.72 393.86-21.08Q396.44-22.44 399.68-22.44L399.68-22.44ZM399.68-17.56Q397.32-17.56 395.68-15.90Q394.04-14.24 394.04-11.08L394.04-11.08Q394.04-7.92 395.68-6.26Q397.32-4.60 399.68-4.60L399.68-4.60Q402.04-4.60 403.68-6.26Q405.32-7.92 405.32-11.08L405.32-11.08Q405.32-14.24 403.68-15.90Q402.04-17.56 399.68-17.56L399.68-17.56Z M417.04-29.60L422.68-29.60L422.68 0L417.04 0L417.04-29.60Z M445.36-22.16L451-22.16L451 0L445.36 0L445.36-4.48Q444.48-2.24 442.46-0.98Q440.44 0.28 437.80 0.28L437.80 0.28Q433.96 0.28 431.68-2.24Q429.40-4.76 429.40-9.28L429.40-9.28L429.40-22.16L435-22.16L435-9.92Q435-7.28 436.36-5.82Q437.72-4.36 440.04-4.36L440.04-4.36Q442.48-4.36 443.92-5.92Q445.36-7.48 445.36-10.40L445.36-10.40L445.36-22.16Z M467.76-4.84L469.96-4.84L469.96 0L467 0Q463.28 0 461.30-1.80Q459.32-3.60 459.32-7.80L459.32-7.80L459.32-17.40L456.24-17.40L456.24-22.16L459.32-22.16L459.32-27.64L464.96-27.64L464.96-22.16L469.92-22.16L469.92-17.40L464.96-17.40L464.96-7.72Q464.96-6.12 465.60-5.48Q466.24-4.84 467.76-4.84L467.76-4.84Z M475.36-28.52Q475.36-29.88 476.32-30.74Q477.28-31.60 478.84-31.60L478.84-31.60Q480.40-31.60 481.36-30.74Q482.32-29.88 482.32-28.52L482.32-28.52Q482.32-27.20 481.36-26.34Q480.40-25.48 478.84-25.48L478.84-25.48Q477.28-25.48 476.32-26.34Q475.36-27.20 475.36-28.52L475.36-28.52ZM476-22.16L481.64-22.16L481.64 0L476 0L476-22.16Z M499-22.44Q502.24-22.44 504.82-21.08Q507.40-19.72 508.88-17.14Q510.36-14.56 510.36-11.08L510.36-11.08Q510.36-7.60 508.88-5.04Q507.40-2.48 504.82-1.10Q502.24 0.28 499 0.28L499 0.28Q495.76 0.28 493.18-1.10Q490.60-2.48 489.12-5.04Q487.64-7.60 487.64-11.08L487.64-11.08Q487.64-14.56 489.12-17.14Q490.60-19.72 493.18-21.08Q495.76-22.44 499-22.44L499-22.44ZM499-17.56Q496.64-17.56 495-15.90Q493.36-14.24 493.36-11.08L493.36-11.08Q493.36-7.92 495-6.26Q496.64-4.60 499-4.60L499-4.60Q501.36-4.60 503-6.26Q504.64-7.92 504.64-11.08L504.64-11.08Q504.64-14.24 503-15.90Q501.36-17.56 499-17.56L499-17.56Z M529.56-22.48Q533.40-22.48 535.68-19.96Q537.96-17.44 537.96-12.88L537.96-12.88L537.96 0L532.36 0L532.36-12.24Q532.36-14.88 531-16.34Q529.64-17.80 527.28-17.80L527.28-17.80Q524.88-17.80 523.44-16.24Q522-14.68 522-11.76L522-11.76L522 0L516.36 0L516.36-22.16L522-22.16L522-17.72Q522.88-19.96 524.90-21.22Q526.92-22.48 529.56-22.48L529.56-22.48Z M552.56-22.44Q556.60-22.44 559.04-20.40Q561.48-18.36 562.08-14.96L562.08-14.96L556.80-14.96Q556.48-16.56 555.36-17.52Q554.24-18.48 552.44-18.48L552.44-18.48Q551.00-18.48 550.20-17.80Q549.40-17.12 549.40-15.96L549.40-15.96Q549.40-15.04 550.04-14.48Q550.68-13.92 551.64-13.60Q552.60-13.28 554.40-12.84L554.40-12.84Q556.92-12.28 558.50-11.66Q560.08-11.04 561.22-9.70Q562.36-8.36 562.36-6.08L562.36-6.08Q562.36-3.24 560.14-1.48Q557.92 0.28 554.16 0.28L554.16 0.28Q549.84 0.28 547.24-1.66Q544.64-3.60 544.08-7.20L544.08-7.20L549.48-7.20Q549.68-5.56 550.92-4.62Q552.16-3.68 554.16-3.68L554.16-3.68Q555.60-3.68 556.36-4.38Q557.12-5.08 557.12-6.20L557.12-6.20Q557.12-7.16 556.46-7.76Q555.80-8.36 554.82-8.68Q553.84-9 552.04-9.44L552.04-9.44Q549.56-10 548.02-10.58Q546.48-11.16 545.38-12.44Q544.28-13.72 544.28-15.96L544.28-15.96Q544.28-18.84 546.48-20.64Q548.68-22.44 552.56-22.44L552.56-22.44Z"/></g>
</svg>
</g><g opacity="1" transform="rotate(0 79.3428 253.9483)">
<svg width="378.7655" height="50" x="79.3428" y="253.9483" version="1.1" preserveAspectRatio="none" viewBox="0.8 -29.6 306.03999999999996 40.400000000000006">
  <g transform="matrix(1 0 0 1 0 0)" class="companyName"><path id="id-D6z1nYkh12" d="M10.12-22.84Q12.32-22.84 13.92-21.94Q15.52-21.04 16.36-19.48L16.36-19.48L16.36-22.56L25.20-22.56L25.20 0L16.36 0L16.36-3.08Q15.52-1.52 13.92-0.62Q12.32 0.28 10.12 0.28L10.12 0.28Q7.48 0.28 5.36-1.10Q3.24-2.48 2.02-5.10Q0.80-7.72 0.80-11.28L0.80-11.28Q0.80-14.84 2.02-17.46Q3.24-20.08 5.36-21.46Q7.48-22.84 10.12-22.84L10.12-22.84ZM13.08-15.08Q11.64-15.08 10.72-14.08Q9.80-13.08 9.80-11.28L9.80-11.28Q9.80-9.48 10.72-8.48Q11.64-7.48 13.08-7.48L13.08-7.48Q14.52-7.48 15.44-8.48Q16.36-9.48 16.36-11.28L16.36-11.28Q16.36-13.08 15.44-14.08Q14.52-15.08 13.08-15.08L13.08-15.08Z M44.28-22.84Q46.92-22.84 49.04-21.46Q51.16-20.08 52.38-17.46Q53.60-14.84 53.60-11.28L53.60-11.28Q53.60-7.72 52.38-5.10Q51.16-2.48 49.04-1.10Q46.92 0.28 44.28 0.28L44.28 0.28Q42.08 0.28 40.50-0.62Q38.92-1.52 38.08-3.08L38.08-3.08L38.08 0L29.20 0L29.20-29.60L38.08-29.60L38.08-19.48Q38.92-21.04 40.50-21.94Q42.08-22.84 44.28-22.84L44.28-22.84ZM41.32-15.08Q39.88-15.08 38.96-14.08Q38.04-13.08 38.04-11.28L38.04-11.28Q38.04-9.48 38.96-8.48Q39.88-7.48 41.32-7.48L41.32-7.48Q42.76-7.48 43.68-8.48Q44.60-9.48 44.60-11.28L44.60-11.28Q44.60-13.08 43.68-14.08Q42.76-15.08 41.32-15.08L41.32-15.08Z M64.52-22.84Q66.72-22.84 68.32-21.94Q69.92-21.04 70.76-19.48L70.76-19.48L70.76-22.56L79.60-22.56L79.60 0L70.76 0L70.76-3.08Q69.92-1.52 68.32-0.62Q66.72 0.28 64.52 0.28L64.52 0.28Q61.88 0.28 59.76-1.10Q57.64-2.48 56.42-5.10Q55.20-7.72 55.20-11.28L55.20-11.28Q55.20-14.84 56.42-17.46Q57.64-20.08 59.76-21.46Q61.88-22.84 64.52-22.84L64.52-22.84ZM67.48-15.08Q66.04-15.08 65.12-14.08Q64.20-13.08 64.20-11.28L64.20-11.28Q64.20-9.48 65.12-8.48Q66.04-7.48 67.48-7.48L67.48-7.48Q68.92-7.48 69.84-8.48Q70.76-9.48 70.76-11.28L70.76-11.28Q70.76-13.08 69.84-14.08Q68.92-15.08 67.48-15.08L67.48-15.08Z M92.48-22.84Q97.08-22.84 99.82-20.62Q102.56-18.40 103.28-14.76L103.28-14.76L95-14.76Q94.48-16.68 92.28-16.68L92.28-16.68Q91.04-16.68 91.04-15.72L91.04-15.72Q91.04-15.04 91.94-14.68Q92.84-14.32 94.80-13.92L94.80-13.92Q97.36-13.44 99.18-12.78Q101-12.12 102.32-10.64Q103.64-9.16 103.64-6.60L103.64-6.60Q103.64-4.60 102.52-3.04Q101.40-1.48 99.24-0.60Q97.08 0.28 94.16 0.28L94.16 0.28Q89.28 0.28 86.40-1.80Q83.52-3.88 82.84-7.80L82.84-7.80L91.36-7.80Q91.60-5.84 94.12-5.84L94.12-5.84Q95.48-5.84 95.48-6.80L95.48-6.80Q95.48-7.56 94.56-7.92Q93.64-8.28 91.60-8.64L91.60-8.64Q89-9.16 87.30-9.76Q85.60-10.36 84.32-11.80Q83.04-13.24 83.04-15.76L83.04-15.76Q83.04-17.80 84.12-19.40Q85.20-21 87.32-21.92Q89.44-22.84 92.48-22.84L92.48-22.84Z M114.88-22.84Q117.08-22.84 118.68-21.94Q120.28-21.04 121.12-19.48L121.12-19.48L121.12-22.56L129.96-22.56L129.96 0L121.12 0L121.12-3.08Q120.28-1.52 118.68-0.62Q117.08 0.28 114.88 0.28L114.88 0.28Q112.24 0.28 110.12-1.10Q108.00-2.48 106.78-5.10Q105.56-7.72 105.56-11.28L105.56-11.28Q105.56-14.84 106.78-17.46Q108.00-20.08 110.12-21.46Q112.24-22.84 114.88-22.84L114.88-22.84ZM117.84-15.08Q116.40-15.08 115.48-14.08Q114.56-13.08 114.56-11.28L114.56-11.28Q114.56-9.48 115.48-8.48Q116.40-7.48 117.84-7.48L117.84-7.48Q119.28-7.48 120.20-8.48Q121.12-9.48 121.12-11.28L121.12-11.28Q121.12-13.08 120.20-14.08Q119.28-15.08 117.84-15.08L117.84-15.08Z M131.56-22.56L141.44-22.56L145.68-11.12L149.64-22.56L159.44-22.56L145.00 10.80L135.28 10.80L140.96-1.12L131.56-22.56Z M159.84-17.32L178.48-17.32L178.48-10L159.84-10L159.84-17.32Z M196.00-7.56L198.12-7.56L198.12 0L194.76 0Q185.48 0 185.48-9.24L185.48-9.24L185.48-15.16L182.68-15.16L182.68-22.56L185.48-22.56L185.48-28L194.36-28L194.36-22.56L198.04-22.56L198.04-15.16L194.36-15.16L194.36-9.08Q194.36-8.28 194.74-7.92Q195.12-7.56 196.00-7.56L196.00-7.56Z M212.24-22.84Q215.64-22.84 218.36-21.44Q221.08-20.04 222.62-17.42Q224.16-14.80 224.16-11.28L224.16-11.28Q224.16-7.76 222.62-5.14Q221.08-2.52 218.36-1.12Q215.64 0.28 212.24 0.28L212.24 0.28Q208.84 0.28 206.12-1.12Q203.40-2.52 201.86-5.14Q200.32-7.76 200.32-11.28L200.32-11.28Q200.32-14.80 201.86-17.42Q203.40-20.04 206.12-21.44Q208.84-22.84 212.24-22.84L212.24-22.84ZM212.24-15.16Q211.00-15.16 210.16-14.18Q209.32-13.20 209.32-11.28L209.32-11.28Q209.32-9.36 210.14-8.38Q210.96-7.40 212.24-7.40L212.24-7.40Q213.48-7.40 214.32-8.38Q215.16-9.36 215.16-11.28L215.16-11.28Q215.16-13.20 214.32-14.18Q213.48-15.16 212.24-15.16L212.24-15.16Z M235.08-22.84Q237.28-22.84 238.86-21.94Q240.44-21.04 241.28-19.48L241.28-19.48L241.28-29.60L250.16-29.60L250.16 0L241.28 0L241.28-3.08Q240.44-1.52 238.86-0.62Q237.28 0.28 235.08 0.28L235.08 0.28Q232.44 0.28 230.32-1.10Q228.20-2.48 226.98-5.10Q225.76-7.72 225.76-11.28L225.76-11.28Q225.76-14.84 226.98-17.46Q228.20-20.08 230.32-21.46Q232.44-22.84 235.08-22.84L235.08-22.84ZM238.04-15.08Q236.60-15.08 235.68-14.08Q234.76-13.08 234.76-11.28L234.76-11.28Q234.76-9.48 235.68-8.48Q236.60-7.48 238.04-7.48L238.04-7.48Q239.48-7.48 240.40-8.48Q241.32-9.48 241.32-11.28L241.32-11.28Q241.32-13.08 240.40-14.08Q239.48-15.08 238.04-15.08L238.04-15.08Z M262.28-22.84Q264.48-22.84 266.08-21.94Q267.68-21.04 268.52-19.48L268.52-19.48L268.52-22.56L277.36-22.56L277.36 0L268.52 0L268.52-3.08Q267.68-1.52 266.08-0.62Q264.48 0.28 262.28 0.28L262.28 0.28Q259.64 0.28 257.52-1.10Q255.40-2.48 254.18-5.10Q252.96-7.72 252.96-11.28L252.96-11.28Q252.96-14.84 254.18-17.46Q255.40-20.08 257.52-21.46Q259.64-22.84 262.28-22.84L262.28-22.84ZM265.24-15.08Q263.80-15.08 262.88-14.08Q261.96-13.08 261.96-11.28L261.96-11.28Q261.96-9.48 262.88-8.48Q263.80-7.48 265.24-7.48L265.24-7.48Q266.68-7.48 267.60-8.48Q268.52-9.48 268.52-11.28L268.52-11.28Q268.52-13.08 267.60-14.08Q266.68-15.08 265.24-15.08L265.24-15.08Z M278.96-22.56L288.84-22.56L293.08-11.12L297.04-22.56L306.84-22.56L292.40 10.80L282.68 10.80L288.36-1.12L278.96-22.56Z"/></g>
</svg>
</g></svg></svg>